<?xml version="1.0" encoding="UTF-8"?>
<svg xmlns="http://www.w3.org/2000/svg" xmlns:xlink="http://www.w3.org/1999/xlink" width="384pt" height="383.999986pt" viewBox="0 0 384 383.999986" version="1.2">
<defs>
<clipPath id="clip1">
  <path d="M 8.664062 56 L 63 56 L 63 329 L 8.664062 329 Z M 8.664062 56 "/>
</clipPath>
<clipPath id="clip2">
  <path d="M 330 56 L 375.414062 56 L 375.414062 326 L 330 326 Z M 330 56 "/>
</clipPath>
</defs>
<g id="surface1">
<path style=" stroke:none;fill-rule:nonzero;fill:rgb(0%,0%,0%);fill-opacity:1;" d="M 192.078125 306.347656 C 128.195312 306.347656 76.25 254.273438 76.25 190.273438 C 76.25 126.273438 128.195312 74.199219 192.078125 74.199219 C 255.964844 74.199219 307.910156 126.273438 307.910156 190.273438 C 307.910156 254.273438 255.964844 306.347656 192.078125 306.347656 Z M 192.078125 62.71875 C 121.894531 62.71875 64.785156 119.933594 64.785156 190.273438 C 64.785156 260.609375 121.894531 317.824219 192.078125 317.824219 C 262.265625 317.824219 319.371094 260.609375 319.371094 190.273438 C 319.371094 119.933594 262.265625 62.71875 192.078125 62.71875 "/>
<path style=" stroke:none;fill-rule:nonzero;fill:rgb(0%,0%,0%);fill-opacity:1;" d="M 246.023438 124.746094 C 243.605469 122.746094 239.992188 123.074219 237.964844 125.523438 C 235.933594 127.945312 236.292969 131.5625 238.710938 133.597656 C 255.667969 147.585938 265.398438 168.242188 265.398438 190.273438 C 265.398438 230.777344 232.5 263.75 192.078125 263.75 C 151.660156 263.75 118.761719 230.777344 118.761719 190.273438 C 118.761719 149.769531 151.660156 116.796875 192.078125 116.796875 C 203.421875 116.796875 214.320312 119.335938 224.410156 124.300781 C 227.246094 125.703125 230.679688 124.539062 232.082031 121.699219 C 233.484375 118.859375 232.320312 115.421875 229.484375 114.015625 C 217.78125 108.246094 205.214844 105.316406 192.078125 105.316406 C 145.332031 105.316406 107.296875 143.429688 107.296875 190.273438 C 107.296875 237.113281 145.332031 275.230469 192.078125 275.230469 C 238.828125 275.230469 276.863281 237.113281 276.863281 190.273438 C 276.863281 164.835938 265.605469 140.949219 246.023438 124.746094 "/>
<path style=" stroke:none;fill-rule:nonzero;fill:rgb(0%,0%,0%);fill-opacity:1;" d="M 227.277344 168.390625 C 234.472656 175.773438 234.828125 187.253906 228.46875 194.726562 L 192.855469 229.042969 L 158.167969 194.519531 C 151.570312 186.566406 152.136719 175.085938 159.421875 167.824219 C 163.242188 163.996094 168.316406 162.054688 173.390625 162.054688 C 177.300781 162.054688 181.214844 163.21875 184.644531 165.582031 L 190.140625 169.378906 C 192.050781 170.722656 194.617188 170.722656 196.558594 169.4375 L 202.140625 165.699219 C 210.050781 160.410156 220.617188 161.546875 227.277344 168.390625 Z M 195.75 156.164062 L 193.421875 157.71875 L 191.152344 156.136719 C 178.796875 147.554688 162.046875 149.050781 151.359375 159.664062 C 139.777344 171.171875 138.941406 189.316406 149.71875 202.261719 L 188.734375 241.152344 C 189.871094 242.257812 191.332031 242.824219 192.796875 242.824219 C 194.230469 242.824219 195.660156 242.285156 196.765625 241.210938 L 236.769531 202.589844 C 247.398438 190.214844 246.859375 172.066406 235.484375 160.378906 C 225.007812 149.558594 208.289062 147.796875 195.75 156.164062 "/>
<g clip-path="url(#clip1)" clip-rule="nonzero">
<path style=" stroke:none;fill-rule:nonzero;fill:rgb(0%,0%,0%);fill-opacity:1;" d="M 56.546875 56.203125 C 53.382812 56.203125 50.816406 58.773438 50.816406 61.941406 L 50.816406 135.507812 C 50.816406 139.277344 46.667969 146.839844 43.917969 151.800781 C 42.039062 155.207031 40.546875 157.898438 39.828125 160.050781 C 38.308594 164.445312 37.441406 182.589844 37.441406 209.851562 C 37.441406 230.359375 41.53125 258.191406 44.488281 278.546875 C 45.980469 288.679688 47.261719 297.4375 47.261719 300.339844 C 47.261719 316.808594 39.082031 316.808594 35.589844 316.808594 C 32.097656 316.808594 23.949219 316.808594 23.949219 300.339844 C 23.949219 297.378906 25.023438 288.679688 26.277344 278.605469 C 28.785156 258.488281 32.21875 230.898438 32.21875 210.332031 L 32.21875 207.820312 C 32.21875 171.023438 32.15625 163.128906 31.144531 160.050781 C 30.398438 157.898438 28.902344 155.207031 27.054688 151.832031 C 24.277344 146.839844 20.128906 139.304688 20.128906 135.507812 L 20.128906 61.941406 C 20.128906 58.773438 17.558594 56.203125 14.394531 56.203125 C 11.230469 56.203125 8.664062 58.773438 8.664062 61.941406 L 8.664062 135.507812 C 8.664062 142.265625 13.289062 150.636719 17.023438 157.390625 C 18.425781 159.929688 19.886719 162.5625 20.214844 163.488281 C 20.753906 166.148438 20.753906 182.710938 20.753906 207.820312 L 20.753906 210.332031 C 20.753906 230.179688 17.351562 257.351562 14.902344 277.203125 C 13.46875 288.5 12.484375 296.660156 12.484375 300.339844 C 12.484375 318.09375 20.902344 328.289062 35.589844 328.289062 C 50.308594 328.289062 58.726562 318.09375 58.726562 300.339844 C 58.726562 296.601562 57.53125 288.320312 55.859375 276.871094 C 52.933594 256.90625 48.90625 229.523438 48.90625 209.851562 C 48.90625 170.484375 50.667969 163.789062 50.667969 163.789062 C 51.085938 162.5625 52.546875 159.929688 53.949219 157.359375 C 57.652344 150.636719 62.28125 142.234375 62.28125 135.507812 L 62.28125 61.941406 C 62.28125 58.773438 59.710938 56.203125 56.546875 56.203125 "/>
</g>
<path style=" stroke:none;fill-rule:nonzero;fill:rgb(0%,0%,0%);fill-opacity:1;" d="M 28.457031 137.691406 C 31.621094 137.691406 34.1875 135.121094 34.1875 131.953125 L 34.1875 61.941406 C 34.1875 58.773438 31.621094 56.203125 28.457031 56.203125 C 25.292969 56.203125 22.722656 58.773438 22.722656 61.941406 L 22.722656 131.953125 C 22.722656 135.121094 25.292969 137.691406 28.457031 137.691406 "/>
<path style=" stroke:none;fill-rule:nonzero;fill:rgb(0%,0%,0%);fill-opacity:1;" d="M 42.488281 137.691406 C 45.679688 137.691406 48.21875 135.121094 48.21875 131.953125 L 48.21875 61.941406 C 48.21875 58.773438 45.679688 56.203125 42.488281 56.203125 C 39.324219 56.203125 36.753906 58.773438 36.753906 61.941406 L 36.753906 131.953125 C 36.753906 135.121094 39.324219 137.691406 42.488281 137.691406 "/>
<g clip-path="url(#clip2)" clip-rule="nonzero">
<path style=" stroke:none;fill-rule:nonzero;fill:rgb(0%,0%,0%);fill-opacity:1;" d="M 364.03125 309.636719 C 364.03125 312.144531 361.972656 314.210938 359.464844 314.210938 C 356.957031 314.210938 354.898438 312.144531 354.898438 309.636719 L 354.898438 209.734375 C 354.898438 208.03125 354.121094 206.386719 352.777344 205.308594 L 351.941406 204.589844 C 345.3125 199.242188 341.523438 191.320312 341.523438 182.800781 L 341.523438 116.109375 C 341.523438 83.644531 355.582031 72.914062 364.03125 69.386719 Z M 373.675781 57.757812 C 372.511719 56.652344 370.957031 56.171875 369.375 56.234375 C 368.988281 56.261719 330.058594 59.640625 330.058594 116.109375 L 330.058594 182.800781 C 330.058594 194.21875 334.925781 204.949219 343.433594 212.453125 L 343.433594 309.636719 C 343.433594 318.484375 350.628906 325.6875 359.464844 325.6875 C 368.300781 325.6875 375.496094 318.484375 375.496094 309.636719 L 375.496094 61.941406 C 375.496094 60.359375 374.839844 58.832031 373.675781 57.757812 "/>
</g>
</g>
</svg>
