<?xml version="1.0" encoding="UTF-8"?>
<svg xmlns="http://www.w3.org/2000/svg" xmlns:xlink="http://www.w3.org/1999/xlink" width="384pt" height="383.999986pt" viewBox="0 0 384 383.999986" version="1.2">
<defs>
<clipPath id="clip1">
  <path d="M 59 14.1875 L 325 14.1875 L 325 351.664062 L 59 351.664062 Z M 59 14.1875 "/>
</clipPath>
</defs>
<g id="surface1">
<rect x="0" y="0" width="384" height="383.999986" style="fill:rgb(100%,100%,100%);fill-opacity:1;stroke:none;"/>
<rect x="0" y="0" width="384" height="383.999986" style="fill:rgb(95.689392%,96.469116%,98.81897%);fill-opacity:1;stroke:none;"/>
<path style=" stroke:none;fill-rule:nonzero;fill:rgb(44.309998%,77.249146%,59.609985%);fill-opacity:1;" d="M 84.375 121.898438 C 83.9375 118.195312 82.917969 114.640625 81.460938 111.226562 C 79.132812 105.925781 74.984375 99.101562 69.230469 102.515625 C 69.230469 105.273438 69.375 108.03125 69.523438 110.789062 C 70.175781 112.242188 70.976562 113.550781 71.851562 114.785156 C 75.128906 119.214844 79.570312 121.828125 84.449219 123.132812 C 84.449219 122.769531 84.449219 122.335938 84.375 121.898438 Z M 84.375 121.898438 "/>
<path style=" stroke:none;fill-rule:nonzero;fill:rgb(7.058716%,44.709778%,45.489502%);fill-opacity:1;" d="M 121.871094 291.800781 C 118.667969 272.921875 115.753906 253.898438 112.699219 234.949219 C 109.640625 215.925781 106.21875 197.046875 103.597656 178.023438 C 102.867188 172.871094 102.140625 167.714844 101.195312 162.632812 C 100.320312 157.914062 98.71875 153.339844 97.40625 148.765625 C 96.171875 144.554688 94.351562 140.125 93.765625 135.765625 C 93.621094 134.605469 93.550781 133.515625 93.695312 132.425781 C 92.457031 132.425781 91.292969 132.355469 90.054688 132.28125 C 89.109375 133.152344 87.941406 133.808594 86.339844 134.097656 C 83.792969 134.605469 82.410156 132.863281 82.265625 130.902344 C 81.027344 130.539062 79.859375 130.175781 78.625 129.667969 C 75.710938 128.507812 73.164062 126.980469 70.832031 125.167969 C 71.996094 134.242188 73.597656 143.320312 75.203125 152.320312 C 78.550781 170.835938 80.589844 189.570312 84.011719 208.082031 C 87.507812 226.960938 91.800781 245.765625 94.640625 264.789062 C 96.972656 280.035156 97.261719 295.574219 99.519531 310.820312 C 101.558594 324.617188 107.089844 337.324219 121.871094 340.882812 C 125.4375 341.753906 129.078125 342.332031 132.71875 342.769531 C 128.933594 325.777344 124.785156 308.863281 121.871094 291.800781 Z M 121.871094 291.800781 "/>
<path style=" stroke:none;fill-rule:nonzero;fill:rgb(44.309998%,77.249146%,59.609985%);fill-opacity:1;" d="M 198.976562 195.160156 C 197.226562 190.367188 193.660156 187.101562 188.417969 186.519531 C 184.339844 186.082031 179.753906 187.027344 180.628906 191.890625 C 180.628906 191.890625 180.628906 191.964844 180.628906 191.964844 C 180.773438 192.546875 180.773438 193.273438 180.554688 194.070312 C 178.296875 201.476562 181.574219 210.550781 185.289062 216.941406 C 187.109375 220.136719 189.21875 223.476562 192.277344 225.65625 C 193.222656 226.378906 194.097656 226.597656 194.535156 226.597656 C 195.042969 226.527344 194.679688 226.742188 195.1875 226.378906 C 195.554688 226.089844 195.773438 225.945312 196.136719 225.4375 C 198.828125 221.804688 199.339844 216.289062 199.847656 211.933594 C 200.503906 206.339844 200.867188 200.316406 198.976562 195.160156 Z M 305.640625 76.519531 C 305.203125 70.785156 304.621094 65.046875 303.527344 59.386719 C 303.089844 56.917969 302.507812 54.449219 301.5625 52.125 C 301.417969 51.835938 301.34375 51.617188 301.269531 51.472656 C 300.46875 51.542969 299.816406 51.324219 299.230469 50.964844 C 292.171875 53.503906 285.035156 56.046875 278.046875 58.730469 C 270.398438 61.636719 263.046875 65.121094 255.691406 68.605469 C 257.660156 69.261719 258.460938 71.511719 258.023438 73.398438 C 258.3125 73.835938 258.679688 74.269531 259.042969 74.632812 C 259.550781 75.214844 260.132812 75.792969 260.644531 76.375 C 260.863281 76.449219 261.226562 76.59375 261.664062 76.664062 C 262.390625 76.738281 263.121094 76.664062 263.847656 76.519531 C 265.304688 76.304688 266.761719 75.867188 268.144531 75.359375 C 275.207031 72.671875 281.394531 68.171875 288.164062 64.757812 C 290.566406 63.523438 293.042969 64.175781 294.207031 66.71875 C 295.738281 70.203125 295.808594 73.835938 295.59375 77.535156 C 295.445312 80.730469 294.644531 84.652344 295.664062 87.773438 C 296.828125 91.1875 297.195312 90.824219 300.46875 90.023438 C 302.582031 89.515625 304.546875 89.152344 306.660156 89.082031 C 306.222656 84.871094 305.929688 80.660156 305.640625 76.519531 Z M 256.277344 24.460938 C 256.128906 24.027344 256.058594 23.734375 255.910156 23.519531 C 255.691406 24.316406 255.183594 25.042969 254.238281 25.550781 C 251.6875 27.148438 249.066406 28.601562 246.375 29.90625 C 246.300781 30.414062 246.15625 30.996094 245.71875 31.648438 C 244.988281 32.8125 244.117188 33.972656 243.753906 35.207031 C 245.574219 35.0625 247.609375 34.117188 249.140625 33.753906 C 251.324219 33.246094 253.289062 33.246094 255.328125 33.683594 C 255.402344 33.175781 255.476562 32.667969 255.765625 32.15625 C 255.984375 31.648438 256.347656 31.214844 256.785156 30.921875 C 256.785156 28.816406 256.785156 26.203125 256.277344 24.460938 Z M 254.527344 76.304688 C 256.710938 76.085938 257.441406 75.140625 257.585938 74.269531 C 257.003906 75.359375 256.058594 76.15625 254.527344 76.304688 Z M 254.527344 76.304688 "/>
<path style=" stroke:none;fill-rule:nonzero;fill:rgb(83.918762%,89.7995%,89.7995%);fill-opacity:1;" d="M 257.148438 51.398438 C 253.582031 49.148438 252.199219 45.226562 253 41.378906 C 251.90625 41.304688 250.960938 41.523438 249.867188 41.816406 C 247.101562 42.613281 243.898438 43.703125 240.984375 43.050781 C 236.109375 41.960938 235.089844 38.328125 235.816406 34.480469 C 226.496094 38.039062 216.742188 40.726562 207.128906 43.628906 C 198.394531 46.316406 189.945312 49.800781 181.355469 52.707031 C 172.617188 55.683594 163.808594 58.441406 155.070312 61.492188 C 145.972656 64.6875 136.652344 67.226562 127.40625 69.914062 C 118.886719 72.382812 110.441406 75.429688 101.777344 77.609375 C 95.734375 79.132812 89.761719 80.730469 83.867188 82.765625 C 79.058594 84.433594 72.726562 86.25 69.230469 90.171875 C 69.160156 90.242188 69.085938 90.316406 69.011719 90.386719 C 69.085938 91.042969 69.011719 91.769531 68.722656 92.566406 C 68.574219 92.855469 68.503906 93.21875 68.355469 93.511719 C 68.429688 93.65625 68.574219 93.726562 68.648438 93.875 C 77.675781 91.332031 85.320312 99.972656 88.816406 108.46875 C 90.273438 111.953125 92.53125 118.558594 92.53125 124.222656 C 100.246094 124.511719 108.402344 122.769531 115.101562 120.738281 C 136.652344 114.203125 157.546875 105.636719 178.078125 96.34375 C 198.683594 86.976562 218.996094 76.8125 239.457031 67.15625 C 248.484375 62.871094 257.367188 58.367188 266.542969 54.519531 C 264.355469 52.414062 260.0625 53.214844 257.148438 51.398438 Z M 257.148438 51.398438 "/>
<path style=" stroke:none;fill-rule:nonzero;fill:rgb(44.309998%,77.249146%,59.609985%);fill-opacity:1;" d="M 313.066406 202.566406 C 311.972656 190.949219 310.808594 179.402344 310.082031 167.714844 C 309.28125 155.953125 309.351562 144.191406 308.84375 132.5 C 308.332031 120.664062 307.75 108.757812 307.023438 96.921875 C 303.820312 96.996094 300.835938 98.664062 297.628906 98.59375 C 294.0625 98.519531 291.441406 97.066406 289.621094 94.019531 C 285.761719 87.703125 288.382812 80.660156 287.730469 74.050781 C 279.429688 78.988281 270.546875 85.304688 260.933594 84.507812 C 256.492188 84.144531 253.582031 81.023438 251.179688 77.464844 C 249.867188 75.503906 249.285156 73.109375 249.941406 71.21875 C 209.679688 90.023438 170.363281 111.152344 128.207031 125.09375 C 119.976562 127.851562 110.949219 130.683594 101.921875 131.847656 C 101.996094 132.210938 101.996094 132.574219 102.066406 133.007812 C 102.066406 133.734375 101.996094 134.386719 101.703125 134.894531 C 101.921875 135.914062 102.359375 137 102.578125 137.945312 C 103.234375 140.195312 103.886719 142.449219 104.46875 144.699219 C 105.78125 149.199219 107.019531 153.703125 108.328125 158.128906 C 110.730469 166.480469 111.3125 175.699219 112.480469 184.339844 C 114.882812 202.492188 118.449219 220.425781 121.289062 238.433594 C 124.203125 256.441406 126.894531 274.519531 130.027344 292.453125 C 132.9375 309.441406 137.160156 326.289062 141.019531 343.058594 C 155.65625 343.351562 170.289062 340.445312 184.195312 336.160156 C 204 330.136719 223.074219 321.640625 242.152344 313.726562 C 251.105469 310.023438 259.988281 306.101562 268.652344 301.746094 C 268.652344 301.382812 268.652344 300.949219 268.582031 300.585938 C 268.289062 299.277344 267.925781 298.042969 267.632812 296.738281 C 266.976562 293.90625 266.175781 291 266.03125 288.097656 C 265.8125 282.941406 267.851562 278.367188 271.710938 274.882812 C 278.917969 268.347656 289.183594 263.554688 299.160156 262.394531 C 298.722656 254.1875 297.339844 246.128906 298.140625 237.851562 C 298.503906 233.859375 299.378906 229.285156 302.507812 226.453125 C 306.148438 223.113281 310.589844 224.203125 314.886719 223.402344 C 314.375 216.507812 313.722656 209.535156 313.066406 202.566406 Z M 170.796875 229.9375 C 167.8125 240.613281 157.328125 246.710938 147.136719 240.539062 C 139.710938 236.039062 136.722656 227.761719 135.777344 219.554688 C 134.902344 212.148438 134.757812 203.21875 138.398438 196.464844 C 142.257812 189.132812 149.683594 187.828125 156.671875 191.820312 C 161.113281 194.359375 157.621094 201.550781 153.105469 199.007812 C 148.738281 196.539062 146.625 197.046875 144.953125 201.550781 C 143.058594 206.558594 143.132812 212.511719 143.714844 217.742188 C 144.296875 222.96875 145.171875 228.269531 148.957031 231.898438 C 154.199219 236.835938 160.96875 235.820312 163.007812 228.484375 C 164.320312 223.476562 172.183594 225 170.796875 229.9375 Z M 208.222656 207.71875 C 207.929688 214.328125 207.203125 222.460938 203.707031 228.269531 C 201.304688 232.1875 197.082031 235.675781 192.132812 234.148438 C 187.253906 232.625 183.613281 228.921875 180.847656 224.785156 C 175.019531 216.144531 169.5625 203.074219 172.765625 192.546875 C 172.765625 192.472656 172.765625 192.472656 172.765625 192.402344 C 172.617188 191.890625 172.546875 191.3125 172.546875 190.730469 C 172.472656 174.25 196.355469 176.0625 203.5625 186.375 C 207.785156 192.617188 208.585938 200.386719 208.222656 207.71875 Z M 245.207031 206.558594 C 239.964844 214.761719 230.136719 215.125 223.148438 208.664062 C 217.542969 203.507812 214.703125 196.320312 215.355469 189.132812 C 213.753906 188.550781 212.589844 187.027344 213.246094 184.847656 C 214.992188 178.894531 217.613281 172.433594 223.804688 169.820312 C 229.480469 167.425781 237.273438 168.296875 241.785156 172.652344 C 246.300781 177.007812 248.414062 183.253906 248.628906 189.421875 C 248.777344 195.085938 248.265625 201.695312 245.207031 206.558594 Z M 284.015625 165.609375 C 280.957031 170.980469 277.753906 177.226562 273.3125 181.871094 C 278.773438 187.171875 282.121094 196.394531 282.269531 202.710938 C 282.414062 207.867188 274.40625 208.445312 274.257812 203.292969 C 274.1875 199.371094 271.492188 189.859375 266.976562 186.738281 C 265.957031 187.316406 264.867188 187.753906 263.703125 188.117188 C 263.703125 194.722656 264.066406 201.1875 262.246094 207.574219 C 261.664062 209.535156 259.769531 211.351562 257.585938 210.699219 C 255.402344 210.117188 254.089844 208.300781 254.457031 206.050781 C 254.527344 205.542969 254.671875 204.960938 254.746094 204.453125 C 254.820312 204.089844 254.890625 203.800781 255.039062 203.507812 C 256.492188 196.03125 255.765625 188.191406 255.765625 180.636719 C 255.765625 173.742188 251.25 163.648438 257.511719 158.347656 C 261.445312 155.007812 265.886719 161.6875 262.027344 164.957031 C 262.753906 164.375 262.390625 167.496094 262.464844 168.367188 C 262.683594 170.402344 263.046875 172.507812 263.339844 174.539062 C 263.484375 175.628906 263.628906 176.644531 263.703125 177.734375 C 264.503906 177.734375 265.304688 177.734375 266.105469 177.878906 C 270.984375 173.886719 274.039062 167.207031 277.027344 162.050781 C 279.355469 157.621094 286.5625 161.105469 284.015625 165.609375 Z M 284.015625 165.609375 "/>
<path style=" stroke:none;fill-rule:nonzero;fill:rgb(44.309998%,77.249146%,59.609985%);fill-opacity:1;" d="M 315.542969 231.390625 C 314.375 231.535156 313.140625 231.609375 311.902344 231.679688 C 310.664062 231.753906 308.625 231.535156 307.824219 232.625 C 306.003906 234.949219 306.003906 239.015625 305.929688 241.847656 C 305.859375 249.90625 307.242188 257.890625 307.3125 266.023438 C 307.3125 268.128906 305.929688 270.308594 303.601562 270.308594 C 294.574219 270.453125 282.703125 274.589844 276.589844 281.488281 C 272.074219 286.644531 275.058594 292.234375 276.371094 297.898438 C 281.757812 294.921875 287 291.726562 292.023438 288.167969 C 292.460938 287.441406 293.1875 286.789062 294.28125 286.5 C 294.28125 286.5 294.355469 286.5 294.355469 286.5 C 295.15625 285.917969 295.882812 285.410156 296.683594 284.828125 C 298.214844 283.667969 299.816406 283.886719 300.980469 284.757812 C 304.109375 283.8125 307.167969 282.652344 309.933594 281.054688 C 314.59375 278.367188 316.707031 275.753906 316.777344 270.234375 C 317.070312 257.09375 316.488281 244.242188 315.542969 231.390625 Z M 237.855469 180.347656 C 235.523438 177.082031 231.011719 175.410156 227.152344 177.082031 C 225.113281 177.953125 223.804688 179.695312 222.785156 181.65625 C 224.019531 182.742188 224.675781 184.414062 223.949219 186.375 C 221.910156 191.601562 223.585938 198.0625 227.515625 201.914062 C 230.574219 204.890625 234.941406 207.210938 237.855469 203.21875 C 241.933594 197.554688 241.859375 185.9375 237.855469 180.347656 Z M 237.855469 180.347656 "/>
<g clip-path="url(#clip1)" clip-rule="nonzero">
<path style=" stroke:none;fill-rule:nonzero;fill:rgb(0.389099%,0.389099%,0.389099%);fill-opacity:1;" d="M 324.859375 261.230469 C 324.789062 237.707031 322.167969 214.253906 319.984375 190.804688 C 318.890625 179.257812 317.945312 167.640625 317.433594 156.023438 C 316.925781 144.191406 316.925781 132.28125 316.269531 120.449219 C 315.324219 103.964844 314.8125 87.265625 313.210938 70.855469 C 312.847656 66.792969 311.902344 51.980469 307.242188 45.734375 C 307.53125 43.121094 305.277344 40.144531 302.070312 41.378906 C 292.898438 44.792969 283.578125 47.984375 274.476562 51.542969 C 272.65625 48.421875 269.964844 46.390625 266.105469 45.589844 C 264.503906 45.226562 262.753906 45.371094 261.300781 44.644531 C 260.132812 44.066406 260.789062 43.265625 261.152344 42.46875 C 261.519531 41.742188 261.664062 41.015625 261.734375 40.363281 C 262.171875 40.289062 262.683594 40.070312 263.046875 39.78125 C 264.867188 38.546875 265.304688 36.078125 264.140625 34.261719 C 263.992188 34.046875 263.847656 33.828125 263.703125 33.609375 C 264.355469 32.882812 264.792969 31.941406 264.792969 30.777344 C 264.792969 26.929688 264.722656 22.863281 262.753906 19.453125 C 260.207031 14.949219 255.402344 14.296875 250.742188 15.386719 C 249.214844 15.75 248.339844 17.054688 248.195312 18.433594 C 246.007812 18.582031 244.988281 20.179688 244.917969 21.921875 C 232.03125 28.816406 217.46875 32.304688 203.5625 36.585938 C 194.753906 39.273438 186.308594 42.832031 177.570312 45.808594 C 168.394531 48.929688 159.222656 52.050781 150.046875 55.027344 C 140.875 58.078125 131.554688 60.691406 122.234375 63.378906 C 113.863281 65.773438 105.636719 68.679688 97.1875 70.855469 C 90.929688 72.453125 84.738281 74.195312 78.695312 76.449219 C 73.308594 78.410156 67.265625 80.804688 63.40625 85.160156 C 62.53125 86.105469 62.3125 87.195312 62.386719 88.136719 C 62.097656 88.429688 61.878906 88.792969 61.730469 89.300781 C 58.671875 96.921875 58.820312 105.199219 61.660156 112.460938 C 62.824219 130.175781 66.464844 147.675781 69.523438 165.246094 C 71.488281 176.5 72.652344 187.898438 74.472656 199.152344 C 76.367188 210.699219 78.695312 222.242188 81.027344 233.714844 C 83.28125 245.1875 85.539062 256.65625 87.289062 268.273438 C 88.816406 278.511719 89.542969 288.75 90.417969 299.058594 C 91.511719 312.636719 92.820312 328.03125 102.503906 338.628906 C 113.0625 350.175781 130.898438 351.554688 145.679688 351.335938 C 164.828125 351.046875 183.757812 345.671875 201.597656 339.136719 C 218.996094 332.820312 236.179688 325.414062 253.144531 318.15625 C 268.796875 311.402344 284.304688 303.851562 298.140625 293.90625 C 305.929688 291.871094 314.523438 289.257812 320.347656 283.59375 C 326.027344 277.859375 324.859375 268.417969 324.859375 261.230469 Z M 277.972656 58.660156 C 285.035156 55.972656 292.097656 53.433594 299.160156 50.890625 C 299.742188 51.253906 300.398438 51.472656 301.199219 51.398438 C 301.269531 51.542969 301.34375 51.761719 301.488281 52.050781 C 302.4375 54.375 303.019531 56.917969 303.457031 59.3125 C 304.546875 64.976562 305.128906 70.710938 305.566406 76.449219 C 305.859375 80.585938 306.148438 84.796875 306.441406 88.9375 C 304.402344 89.007812 302.363281 89.371094 300.25 89.878906 C 296.976562 90.679688 296.609375 91.042969 295.445312 87.628906 C 294.425781 84.507812 295.226562 80.585938 295.375 77.390625 C 295.59375 73.6875 295.519531 69.984375 293.988281 66.574219 C 292.824219 64.03125 290.351562 63.378906 287.945312 64.613281 C 281.25 68.027344 275.058594 72.527344 267.925781 75.214844 C 266.542969 75.722656 265.085938 76.15625 263.628906 76.375 C 262.902344 76.449219 262.171875 76.519531 261.445312 76.519531 C 261.007812 76.519531 260.644531 76.375 260.425781 76.230469 C 259.84375 75.648438 259.332031 75.070312 258.824219 74.488281 C 258.460938 74.050781 258.167969 73.6875 257.804688 73.253906 C 258.242188 71.367188 257.441406 69.113281 255.472656 68.460938 C 263.046875 65.046875 270.328125 61.636719 277.972656 58.660156 Z M 257.585938 74.34375 C 257.441406 75.214844 256.710938 76.085938 254.527344 76.375 C 256.058594 76.15625 257.003906 75.359375 257.585938 74.34375 Z M 245.792969 31.648438 C 246.15625 31.070312 246.375 30.488281 246.445312 29.90625 C 249.140625 28.601562 251.761719 27.148438 254.308594 25.550781 C 255.183594 24.96875 255.691406 24.242188 255.984375 23.519531 C 256.058594 23.734375 256.203125 24.097656 256.347656 24.460938 C 256.859375 26.132812 256.859375 28.816406 256.859375 30.996094 C 256.492188 31.359375 256.128906 31.722656 255.839844 32.230469 C 255.621094 32.667969 255.472656 33.175781 255.402344 33.753906 C 253.363281 33.246094 251.398438 33.320312 249.214844 33.828125 C 247.683594 34.191406 245.644531 35.0625 243.824219 35.28125 C 244.1875 33.972656 245.0625 32.8125 245.792969 31.648438 Z M 68.503906 93.582031 C 68.648438 93.292969 68.722656 92.929688 68.867188 92.640625 C 69.160156 91.914062 69.230469 91.113281 69.160156 90.460938 C 69.230469 90.386719 69.304688 90.316406 69.375 90.242188 C 72.871094 86.25 79.207031 84.507812 84.011719 82.835938 C 89.835938 80.804688 95.878906 79.207031 101.921875 77.683594 C 110.511719 75.503906 118.960938 72.453125 127.550781 69.984375 C 136.796875 67.300781 146.1875 64.757812 155.21875 61.5625 C 163.953125 58.515625 172.765625 55.683594 181.5 52.777344 C 190.164062 49.875 198.539062 46.316406 207.277344 43.703125 C 216.8125 40.796875 226.570312 38.113281 235.960938 34.554688 C 235.234375 38.402344 236.179688 42.03125 241.132812 43.121094 C 244.042969 43.773438 247.246094 42.613281 250.015625 41.886719 C 251.035156 41.597656 252.050781 41.378906 253.144531 41.453125 C 252.269531 45.300781 253.726562 49.21875 257.292969 51.472656 C 260.207031 53.359375 264.503906 52.488281 266.90625 54.664062 C 257.730469 58.515625 248.847656 63.089844 239.820312 67.300781 C 219.363281 76.957031 199.046875 87.121094 178.445312 96.488281 C 157.910156 105.855469 137.015625 114.347656 115.464844 120.882812 C 108.765625 122.917969 100.613281 124.660156 92.894531 124.367188 C 92.894531 118.703125 90.636719 112.097656 89.179688 108.613281 C 85.613281 100.117188 78.039062 91.476562 69.011719 94.019531 C 68.722656 93.875 68.648438 93.726562 68.503906 93.582031 Z M 69.230469 102.515625 C 74.984375 99.171875 79.132812 105.925781 81.460938 111.226562 C 82.917969 114.640625 83.9375 118.195312 84.375 121.898438 C 84.449219 122.335938 84.449219 122.699219 84.519531 123.132812 C 79.644531 121.753906 75.203125 119.140625 71.925781 114.785156 C 70.976562 113.550781 70.25 112.171875 69.59375 110.789062 C 69.375 108.03125 69.304688 105.273438 69.230469 102.515625 Z M 121.945312 340.734375 C 107.164062 337.179688 101.628906 324.472656 99.59375 310.675781 C 97.335938 295.429688 97.042969 279.964844 94.714844 264.644531 C 91.800781 245.621094 87.507812 226.890625 84.082031 207.9375 C 80.660156 189.421875 78.625 170.691406 75.273438 152.175781 C 73.671875 143.171875 72.070312 134.097656 70.90625 125.023438 C 73.164062 126.835938 75.785156 128.433594 78.695312 129.523438 C 79.859375 129.960938 81.097656 130.394531 82.335938 130.757812 C 82.480469 132.789062 83.867188 134.53125 86.414062 133.953125 C 87.941406 133.660156 89.179688 133.007812 90.128906 132.136719 C 91.292969 132.210938 92.53125 132.28125 93.765625 132.28125 C 93.621094 133.300781 93.695312 134.460938 93.839844 135.621094 C 94.421875 139.980469 96.242188 144.40625 97.480469 148.617188 C 98.792969 153.191406 100.394531 157.839844 101.265625 162.488281 C 102.214844 167.570312 103.015625 172.722656 103.667969 177.878906 C 106.289062 196.976562 109.710938 215.851562 112.769531 234.804688 C 115.828125 253.753906 118.742188 272.703125 121.945312 291.652344 C 124.855469 308.714844 128.933594 325.632812 132.867188 342.476562 C 129.152344 342.261719 125.585938 341.605469 121.945312 340.734375 Z M 266.105469 288.167969 C 266.175781 291.074219 266.976562 293.976562 267.707031 296.808594 C 267.996094 298.117188 268.363281 299.351562 268.652344 300.65625 C 268.726562 301.019531 268.726562 301.527344 268.726562 301.820312 C 260.0625 306.175781 251.179688 310.097656 242.222656 313.800781 C 223.148438 321.714844 204.070312 330.207031 184.269531 336.234375 C 170.363281 340.445312 155.65625 343.351562 141.09375 343.132812 C 137.234375 326.359375 133.011719 309.515625 130.097656 292.523438 C 126.96875 274.519531 124.273438 256.511719 121.363281 238.503906 C 118.449219 220.425781 114.953125 202.492188 112.550781 184.414062 C 111.386719 175.773438 110.804688 166.550781 108.402344 158.203125 C 107.089844 153.703125 105.855469 149.199219 104.542969 144.769531 C 103.886719 142.519531 103.234375 140.269531 102.648438 138.019531 C 102.359375 137.074219 101.921875 136.058594 101.777344 134.96875 C 101.996094 134.460938 102.140625 133.808594 102.140625 133.082031 C 102.140625 132.644531 102.066406 132.28125 101.996094 131.917969 C 111.023438 130.757812 120.050781 127.925781 128.277344 125.167969 C 170.433594 111.152344 209.679688 90.023438 249.867188 71.292969 C 249.214844 73.179688 249.796875 75.578125 251.105469 77.535156 C 253.507812 81.09375 256.421875 84.21875 260.863281 84.578125 C 270.472656 85.378906 279.355469 79.0625 287.65625 74.125 C 288.3125 80.730469 285.761719 87.847656 289.550781 94.089844 C 291.441406 97.140625 294.0625 98.59375 297.558594 98.664062 C 300.761719 98.738281 303.746094 97.066406 306.949219 96.996094 C 307.679688 108.832031 308.261719 120.738281 308.769531 132.574219 C 309.28125 144.335938 309.207031 156.097656 310.007812 167.785156 C 310.734375 179.402344 311.902344 191.019531 312.992188 202.636719 C 313.648438 209.609375 314.304688 216.578125 314.886719 223.621094 C 310.519531 224.347656 306.148438 223.332031 302.507812 226.671875 C 299.378906 229.503906 298.503906 234.078125 298.140625 238.070312 C 297.339844 246.273438 298.722656 254.40625 299.160156 262.609375 C 289.183594 263.773438 278.917969 268.566406 271.710938 275.097656 C 267.925781 278.441406 265.957031 283.015625 266.105469 288.167969 Z M 316.851562 270.015625 C 316.777344 275.535156 314.667969 278.148438 310.007812 280.835938 C 307.242188 282.433594 304.183594 283.59375 301.050781 284.539062 C 299.886719 283.667969 298.285156 283.449219 296.757812 284.609375 C 296.027344 285.191406 295.226562 285.773438 294.425781 286.28125 C 294.425781 286.28125 294.355469 286.28125 294.355469 286.28125 C 293.1875 286.570312 292.460938 287.152344 292.097656 287.949219 C 287.074219 291.507812 281.832031 294.703125 276.445312 297.679688 C 275.207031 292.015625 272.148438 286.425781 276.660156 281.269531 C 282.777344 274.375 294.644531 270.234375 303.671875 270.089844 C 305.929688 270.015625 307.386719 267.839844 307.386719 265.804688 C 307.3125 257.746094 305.859375 249.761719 306.003906 241.628906 C 306.003906 238.796875 306.078125 234.804688 307.898438 232.40625 C 308.769531 231.316406 310.808594 231.535156 311.972656 231.464844 C 313.210938 231.390625 314.449219 231.316406 315.613281 231.171875 C 316.488281 244.242188 317.070312 257.09375 316.851562 270.015625 Z M 316.851562 270.015625 "/>
</g>
<path style=" stroke:none;fill-rule:nonzero;fill:rgb(0.389099%,0.389099%,0.389099%);fill-opacity:1;" d="M 162.933594 228.414062 C 160.898438 235.746094 154.125 236.835938 148.882812 231.824219 C 145.097656 228.269531 144.152344 222.96875 143.640625 217.667969 C 143.058594 212.441406 143.058594 206.488281 144.878906 201.476562 C 146.554688 196.976562 148.738281 196.539062 153.035156 198.933594 C 157.546875 201.476562 161.042969 194.289062 156.601562 191.746094 C 149.613281 187.828125 142.183594 189.0625 138.324219 196.394531 C 134.757812 203.144531 134.902344 212.148438 135.703125 219.484375 C 136.652344 227.6875 139.636719 235.964844 147.0625 240.464844 C 157.257812 246.636719 167.742188 240.539062 170.726562 229.867188 C 172.183594 225 164.320312 223.476562 162.933594 228.414062 Z M 203.488281 186.445312 C 196.28125 176.0625 172.398438 174.25 172.472656 190.804688 C 172.472656 191.382812 172.546875 191.890625 172.691406 192.472656 C 172.691406 192.546875 172.691406 192.546875 172.691406 192.617188 C 169.488281 203.144531 174.949219 216.214844 180.773438 224.855469 C 183.613281 228.996094 187.253906 232.699219 192.058594 234.222656 C 197.007812 235.746094 201.234375 232.261719 203.636719 228.339844 C 207.128906 222.53125 207.859375 214.402344 208.148438 207.792969 C 208.585938 200.386719 207.785156 192.617188 203.488281 186.445312 Z M 199.921875 211.785156 C 199.414062 216.144531 198.902344 221.660156 196.207031 225.292969 C 195.84375 225.800781 195.625 226.015625 195.261719 226.234375 C 194.753906 226.597656 195.117188 226.453125 194.605469 226.453125 C 194.171875 226.527344 193.296875 226.234375 192.351562 225.507812 C 189.292969 223.332031 187.179688 219.992188 185.359375 216.796875 C 181.71875 210.40625 178.371094 201.257812 180.628906 193.925781 C 180.847656 193.125 180.847656 192.402344 180.699219 191.820312 C 180.699219 191.820312 180.699219 191.746094 180.699219 191.746094 C 179.828125 186.882812 184.414062 185.9375 188.492188 186.375 C 193.734375 186.957031 197.300781 190.222656 199.046875 195.015625 C 200.867188 200.316406 200.503906 206.339844 199.921875 211.785156 Z M 248.558594 189.496094 C 248.339844 183.324219 246.300781 177.082031 241.714844 172.722656 C 237.125 168.367188 229.410156 167.496094 223.730469 169.894531 C 217.542969 172.507812 214.921875 178.96875 213.171875 184.921875 C 212.519531 187.101562 213.683594 188.625 215.285156 189.207031 C 214.628906 196.464844 217.46875 203.582031 223.074219 208.738281 C 230.066406 215.125 239.894531 214.761719 245.136719 206.632812 C 248.265625 201.695312 248.777344 195.085938 248.558594 189.496094 Z M 237.855469 203.144531 C 235.015625 207.140625 230.574219 204.816406 227.515625 201.839844 C 223.511719 197.917969 221.910156 191.53125 223.949219 186.300781 C 224.675781 184.414062 224.019531 182.671875 222.785156 181.582031 C 223.730469 179.621094 225.113281 177.878906 227.152344 177.007812 C 231.011719 175.410156 235.523438 177.082031 237.855469 180.273438 C 241.859375 185.9375 241.933594 197.554688 237.855469 203.144531 Z M 276.878906 162.050781 C 273.96875 167.207031 270.835938 173.886719 265.957031 177.878906 C 265.15625 177.734375 264.355469 177.660156 263.554688 177.734375 C 263.484375 176.644531 263.410156 175.628906 263.191406 174.539062 C 262.902344 172.507812 262.535156 170.472656 262.320312 168.367188 C 262.246094 167.496094 262.609375 164.375 261.882812 164.957031 C 265.8125 161.6875 261.371094 155.007812 257.367188 158.347656 C 251.035156 163.648438 255.621094 173.742188 255.621094 180.636719 C 255.621094 188.191406 256.421875 196.03125 254.890625 203.507812 C 254.746094 203.800781 254.671875 204.089844 254.601562 204.453125 C 254.527344 204.960938 254.382812 205.542969 254.308594 206.050781 C 253.945312 208.300781 255.257812 210.1875 257.441406 210.699219 C 259.699219 211.277344 261.589844 209.535156 262.101562 207.574219 C 263.921875 201.1875 263.554688 194.722656 263.554688 188.117188 C 264.722656 187.753906 265.8125 187.316406 266.832031 186.738281 C 271.347656 189.859375 274.039062 199.445312 274.113281 203.292969 C 274.257812 208.445312 282.195312 207.792969 282.121094 202.710938 C 281.976562 196.394531 278.628906 187.171875 273.167969 181.871094 C 277.609375 177.226562 280.8125 170.980469 283.871094 165.609375 C 286.5625 161.105469 279.355469 157.621094 276.878906 162.050781 Z M 276.878906 162.050781 "/>
</g>
</svg>
