<?xml version="1.0" encoding="UTF-8"?>
<svg xmlns="http://www.w3.org/2000/svg" xmlns:xlink="http://www.w3.org/1999/xlink" width="384pt" height="383.999986pt" viewBox="0 0 384 383.999986" version="1.2">
<defs>
<clipPath id="clip1">
  <path d="M 7.0625 7.0625 L 376.695312 7.0625 L 376.695312 376.695312 L 7.0625 376.695312 Z M 7.0625 7.0625 "/>
</clipPath>
</defs>
<g id="surface1">
<path style=" stroke:none;fill-rule:nonzero;fill:rgb(100%,81.568909%,45.098877%);fill-opacity:1;" d="M 370.535156 191.878906 C 370.535156 290.542969 290.542969 370.535156 191.878906 370.535156 C 93.214844 370.535156 13.222656 290.542969 13.222656 191.878906 C 13.222656 93.214844 93.214844 13.222656 191.878906 13.222656 C 290.542969 13.222656 370.535156 93.214844 370.535156 191.878906 "/>
<path style=" stroke:none;fill-rule:nonzero;fill:rgb(95.689392%,95.689392%,90.19928%);fill-opacity:1;" d="M 308.929688 191.878906 C 308.929688 256.515625 256.515625 308.929688 191.878906 308.929688 C 127.242188 308.929688 74.828125 256.515625 74.828125 191.878906 C 74.828125 127.242188 127.242188 74.828125 191.878906 74.828125 C 256.515625 74.828125 308.929688 127.242188 308.929688 191.878906 "/>
<path style=" stroke:none;fill-rule:nonzero;fill:rgb(17.649841%,45.878601%,73.329163%);fill-opacity:1;" d="M 148.777344 308.929688 L 148.730469 308.929688 C 135.445312 308.929688 124.980469 297.617188 125.988281 284.382812 L 136.433594 148.753906 L 161.074219 148.753906 L 171.519531 284.382812 C 172.53125 297.617188 162.0625 308.929688 148.777344 308.929688 "/>
<path style=" stroke:none;fill-rule:nonzero;fill:rgb(49.798584%,79.219055%,78.819275%);fill-opacity:1;" d="M 259.644531 74.828125 C 259.644531 74.828125 198.039062 105.628906 198.039062 222.679688 L 259.644531 222.679688 L 259.644531 74.828125 "/>
<path style=" stroke:none;fill-rule:nonzero;fill:rgb(17.649841%,45.878601%,73.329163%);fill-opacity:1;" d="M 259.644531 222.679688 L 228.839844 222.679688 L 216.519531 284.285156 C 214.546875 298.074219 216.519531 308.929688 235.003906 308.929688 C 259.644531 308.929688 259.644531 296.921875 259.644531 284.285156 L 259.644531 222.679688 "/>
<path style=" stroke:none;fill-rule:nonzero;fill:rgb(94.898987%,64.309692%,43.919373%);fill-opacity:1;" d="M 191.878906 345.890625 C 190.339844 345.890625 37.863281 344.136719 37.863281 191.878906 C 37.863281 188.484375 40.632812 185.71875 44.023438 185.71875 C 47.417969 185.71875 50.1875 188.484375 50.1875 191.878906 C 50.1875 331.957031 186.078125 333.570312 191.878906 333.570312 C 195.273438 333.570312 198.039062 336.339844 198.039062 339.730469 C 198.039062 343.125 195.273438 345.890625 191.878906 345.890625 "/>
<path style=" stroke:none;fill-rule:nonzero;fill:rgb(49.798584%,79.219055%,78.819275%);fill-opacity:1;" d="M 148.753906 167.234375 C 124.113281 167.234375 111.792969 152.316406 111.792969 136.433594 L 114.269531 68.667969 L 183.238281 68.667969 L 185.71875 136.433594 C 185.71875 152.316406 173.398438 167.234375 148.753906 167.234375 "/>
<path style=" stroke:none;fill-rule:nonzero;fill:rgb(17.649841%,45.878601%,73.329163%);fill-opacity:1;" d="M 136.433594 136.433594 C 133.039062 136.433594 130.273438 133.667969 130.273438 130.273438 L 130.273438 68.667969 C 130.273438 65.273438 133.039062 62.507812 136.433594 62.507812 C 139.828125 62.507812 142.59375 65.273438 142.59375 68.667969 L 142.59375 130.273438 C 142.59375 133.667969 139.828125 136.433594 136.433594 136.433594 "/>
<path style=" stroke:none;fill-rule:nonzero;fill:rgb(17.649841%,45.878601%,73.329163%);fill-opacity:1;" d="M 161.074219 136.433594 C 157.683594 136.433594 154.914062 133.667969 154.914062 130.273438 L 154.914062 68.667969 C 154.914062 65.273438 157.683594 62.507812 161.074219 62.507812 C 164.46875 62.507812 167.234375 65.273438 167.234375 68.667969 L 167.234375 130.273438 C 167.234375 133.667969 164.46875 136.433594 161.074219 136.433594 "/>
<g clip-path="url(#clip1)" clip-rule="nonzero">
<path style=" stroke:none;fill-rule:nonzero;fill:rgb(0%,0%,0%);fill-opacity:1;" d="M 191.878906 364.375 C 96.75 364.375 19.382812 287.007812 19.382812 191.878906 C 19.382812 96.75 96.75 19.382812 191.878906 19.382812 C 287.007812 19.382812 364.375 96.75 364.375 191.878906 C 364.375 287.007812 287.007812 364.375 191.878906 364.375 Z M 191.878906 7.0625 C 89.964844 7.0625 7.0625 89.964844 7.0625 191.878906 C 7.0625 293.792969 89.964844 376.695312 191.878906 376.695312 C 293.792969 376.695312 376.695312 293.792969 376.695312 191.878906 C 376.695312 89.964844 293.792969 7.0625 191.878906 7.0625 "/>
</g>
<path style=" stroke:none;fill-rule:nonzero;fill:rgb(0%,0%,0%);fill-opacity:1;" d="M 191.878906 333.570312 C 186.078125 333.570312 50.1875 331.957031 50.1875 191.878906 C 50.1875 188.484375 47.417969 185.71875 44.023438 185.71875 C 40.632812 185.71875 37.863281 188.484375 37.863281 191.878906 C 37.863281 344.136719 190.339844 345.890625 191.878906 345.890625 C 195.273438 345.890625 198.039062 343.125 198.039062 339.730469 C 198.039062 336.339844 195.273438 333.570312 191.878906 333.570312 "/>
<path style=" stroke:none;fill-rule:nonzero;fill:rgb(0%,0%,0%);fill-opacity:1;" d="M 265.804688 274.46875 L 265.804688 109.265625 C 289.386719 130.296875 302.769531 159.992188 302.769531 191.878906 C 302.769531 223.425781 289.097656 253.554688 265.804688 274.46875 Z M 253.484375 216.519531 L 204.273438 216.519531 C 205.332031 161.820312 220.5625 128.011719 233.390625 109.097656 C 240.679688 98.386719 248.019531 91.167969 253.484375 86.621094 Z M 253.484375 284.285156 C 253.484375 296.96875 253.484375 302.769531 235.003906 302.769531 C 229.5625 302.769531 225.90625 301.734375 224.101562 299.640625 C 222.054688 297.28125 221.574219 292.539062 222.5625 285.488281 L 233.894531 228.839844 L 253.484375 228.839844 Z M 210.433594 283.421875 C 209.636719 288.859375 209.230469 295.308594 211.105469 301.058594 C 198.710938 303.226562 185.886719 303.25 173.492188 301.179688 C 176.621094 296.03125 178.113281 289.988281 177.65625 283.925781 L 168.871094 169.738281 C 184.539062 163.335938 191.878906 149.476562 191.878906 136.21875 L 189.855469 81.0625 C 204.730469 80.820312 219.503906 83.441406 233.292969 89.003906 C 214.691406 109.988281 191.878906 150.414062 191.878906 222.679688 C 191.878906 226.074219 194.644531 228.839844 198.039062 228.839844 L 221.332031 228.839844 Z M 160.980469 297.449219 C 154.675781 304.261719 142.929688 304.355469 136.53125 297.449219 C 133.328125 294.007812 131.789062 289.53125 132.148438 284.863281 L 140.765625 172.84375 C 143.292969 173.179688 145.914062 173.398438 148.753906 173.398438 C 151.59375 173.398438 154.21875 173.179688 156.742188 172.84375 L 165.359375 284.863281 C 165.71875 289.53125 164.179688 294.007812 160.980469 297.449219 Z M 120.429688 276.609375 C 95.597656 255.625 80.988281 224.605469 80.988281 191.878906 C 80.988281 165.886719 89.867188 141.292969 106.183594 121.511719 L 105.628906 136.433594 C 105.628906 149.546875 112.96875 163.335938 128.636719 169.738281 Z M 120.191406 74.828125 L 130.273438 74.828125 L 130.273438 130.273438 C 130.273438 133.667969 133.039062 136.433594 136.433594 136.433594 C 139.828125 136.433594 142.59375 133.667969 142.59375 130.273438 L 142.59375 74.828125 L 154.914062 74.828125 L 154.914062 130.273438 C 154.914062 133.667969 157.683594 136.433594 161.074219 136.433594 C 164.46875 136.433594 167.234375 133.667969 167.234375 130.273438 L 167.234375 74.828125 L 177.320312 74.828125 L 179.558594 136.433594 C 179.558594 148.707031 170.027344 161.074219 148.753906 161.074219 C 127.480469 161.074219 117.953125 148.707031 117.953125 136.648438 Z M 267.511719 94.609375 C 266.984375 94.199219 266.382812 93.960938 265.804688 93.742188 L 265.804688 74.828125 C 265.804688 72.6875 264.699219 70.714844 262.894531 69.582031 C 261.0625 68.449219 258.800781 68.355469 256.878906 69.316406 C 256.132812 69.703125 250.378906 72.710938 242.605469 79.640625 C 225.882812 72.0625 207.738281 68.402344 189.425781 68.765625 L 189.398438 68.449219 C 189.28125 65.128906 186.558594 62.507812 183.238281 62.507812 L 114.269531 62.507812 C 110.949219 62.507812 108.230469 65.128906 108.109375 68.449219 L 106.835938 103.394531 C 106.089844 103.707031 105.367188 104.140625 104.765625 104.765625 C 81.492188 128.035156 68.667969 158.957031 68.667969 191.878906 C 68.667969 231.609375 88.015625 269.125 120.40625 292.253906 C 120.453125 292.300781 120.527344 292.300781 120.597656 292.347656 C 121.707031 297.328125 123.96875 302.023438 127.480469 305.800781 C 132.945312 311.71875 140.691406 315.089844 148.777344 315.089844 C 153.617188 315.089844 158.261719 313.742188 162.449219 311.480469 C 172.023438 313.839844 181.914062 315.089844 191.878906 315.089844 C 201.40625 315.089844 210.890625 313.933594 220.082031 311.792969 C 224.003906 313.933594 228.867188 315.089844 235.003906 315.089844 C 260.917969 315.089844 265.011719 301.972656 265.660156 290.519531 C 296.632812 267.320312 315.089844 230.550781 315.089844 191.878906 C 315.089844 153.589844 297.738281 118.144531 267.511719 94.609375 "/>
</g>
</svg>
