<?xml version="1.0" encoding="UTF-8"?>
<svg xmlns="http://www.w3.org/2000/svg" xmlns:xlink="http://www.w3.org/1999/xlink" width="384pt" height="383.999986pt" viewBox="0 0 384 383.999986" version="1.2">
<defs>
<clipPath id="clip1">
  <path d="M 298 86 L 369.132812 86 L 369.132812 193 L 298 193 Z M 298 86 "/>
</clipPath>
<clipPath id="clip2">
  <path d="M 56 109 L 199 109 L 199 345.519531 L 56 345.519531 Z M 56 109 "/>
</clipPath>
<clipPath id="clip3">
  <path d="M 133 147 L 199 147 L 199 345.519531 L 133 345.519531 Z M 133 147 "/>
</clipPath>
<clipPath id="clip4">
  <path d="M 57 168 L 199 168 L 199 345.519531 L 57 345.519531 Z M 57 168 "/>
</clipPath>
<clipPath id="clip5">
  <path d="M 133 185 L 199 185 L 199 345.519531 L 133 345.519531 Z M 133 185 "/>
</clipPath>
<clipPath id="clip6">
  <path d="M 145 239 L 369.132812 239 L 369.132812 345.519531 L 145 345.519531 Z M 145 239 "/>
</clipPath>
<clipPath id="clip7">
  <path d="M 345 257 L 369.132812 257 L 369.132812 269 L 345 269 Z M 345 257 "/>
</clipPath>
<clipPath id="clip8">
  <path d="M 92 9.554688 L 205 9.554688 L 205 318 L 92 318 Z M 92 9.554688 "/>
</clipPath>
<clipPath id="clip9">
  <path d="M 15.132812 56 L 122 56 L 122 164 L 15.132812 164 Z M 15.132812 56 "/>
</clipPath>
</defs>
<g id="surface1">
<g clip-path="url(#clip1)" clip-rule="nonzero">
<path style=" stroke:none;fill-rule:nonzero;fill:rgb(90.19928%,91.369629%,92.939758%);fill-opacity:1;" d="M 328.070312 192.273438 L 353.207031 132.019531 C 362.597656 128.890625 369.398438 120.164062 369.398438 109.757812 C 369.398438 96.722656 358.835938 86.179688 345.78125 86.179688 C 332.726562 86.179688 322.164062 96.722656 322.164062 109.757812 C 322.164062 114.222656 323.480469 118.34375 325.648438 121.890625 L 298.546875 180.484375 L 328.070312 192.273438 "/>
</g>
<g clip-path="url(#clip2)" clip-rule="nonzero">
<path style=" stroke:none;fill-rule:nonzero;fill:rgb(90.19928%,91.369629%,92.939758%);fill-opacity:1;" d="M 198.175781 345.519531 L 79.324219 345.519531 C 73.121094 345.519531 67.957031 340.707031 67.539062 334.515625 L 56.46875 168.699219 L 56.46875 109.757812 L 198.175781 109.757812 L 198.175781 345.519531 "/>
</g>
<g clip-path="url(#clip3)" clip-rule="nonzero">
<path style=" stroke:none;fill-rule:nonzero;fill:rgb(79.998779%,81.959534%,85.099792%);fill-opacity:1;" d="M 198.175781 168.699219 L 198.175781 147.171875 C 191.230469 150.484375 186.363281 157.53125 186.363281 165.703125 L 186.363281 168.28125 L 177.832031 173.96875 C 172.089844 177.792969 168.652344 184.191406 168.652344 191.097656 L 168.652344 198.652344 C 157.859375 204.914062 149.785156 215.296875 146.601562 227.636719 L 133.226562 227.636719 L 133.226562 274.792969 C 133.226562 304.816406 149.441406 331.085938 173.542969 345.519531 L 198.175781 345.519531 L 198.175781 168.699219 "/>
</g>
<g clip-path="url(#clip4)" clip-rule="nonzero">
<path style=" stroke:none;fill-rule:nonzero;fill:rgb(98.81897%,84.309387%,43.919373%);fill-opacity:1;" d="M 180.460938 186.378906 C 150.9375 186.378906 127.320312 168.699219 103.703125 168.699219 C 82.484375 168.699219 61.3125 178.183594 57.230469 180.117188 L 67.539062 334.515625 C 67.957031 340.707031 73.121094 345.519531 79.324219 345.519531 L 198.175781 345.519531 L 198.175781 188.589844 L 180.460938 186.378906 "/>
</g>
<g clip-path="url(#clip5)" clip-rule="nonzero">
<path style=" stroke:none;fill-rule:nonzero;fill:rgb(100%,78.039551%,16.079712%);fill-opacity:1;" d="M 169.460938 185.574219 C 168.953125 187.371094 168.652344 189.1875 168.652344 191.097656 L 168.652344 198.652344 C 157.859375 204.914062 149.785156 215.296875 146.601562 227.636719 L 133.226562 227.636719 L 133.226562 274.792969 C 133.226562 304.816406 149.441406 331.085938 173.542969 345.519531 L 198.175781 345.519531 L 198.175781 188.589844 L 180.460938 186.378906 C 176.703125 186.378906 173.035156 186.082031 169.460938 185.574219 "/>
</g>
<path style=" stroke:none;fill-rule:nonzero;fill:rgb(79.998779%,81.959534%,85.099792%);fill-opacity:1;" d="M 333.925781 178.253906 C 326.777344 174.132812 318.84375 171.207031 310.425781 169.78125 L 305.699219 165.058594 L 298.546875 180.484375 L 328.070312 192.273438 L 333.925781 178.253906 "/>
<path style=" stroke:none;fill-rule:nonzero;fill:rgb(62.748718%,83.139038%,40.779114%);fill-opacity:1;" d="M 180.460938 204.0625 L 180.460938 191.097656 C 180.460938 188.152344 181.9375 185.390625 184.382812 183.753906 L 194.253906 177.214844 C 196.699219 175.582031 198.175781 172.820312 198.175781 169.871094 L 198.175781 165.703125 C 198.175781 160.847656 202.117188 156.910156 206.984375 156.910156 L 210.445312 156.910156 C 213.789062 156.910156 216.832031 155.019531 218.332031 152.050781 L 219.347656 149.980469 C 220.84375 147.007812 223.890625 145.121094 227.234375 145.121094 C 231.039062 145.121094 234.40625 147.539062 235.605469 151.152344 L 237.496094 156.769531 C 238.695312 160.386719 242.0625 162.804688 245.871094 162.804688 C 249.214844 162.804688 252.257812 160.914062 253.757812 157.945312 L 254.773438 155.871094 C 256.273438 152.902344 259.316406 151.015625 262.660156 151.015625 L 263.582031 151.015625 C 266.925781 151.015625 269.972656 152.902344 271.472656 155.871094 L 272.484375 157.945312 C 273.984375 160.914062 277.027344 162.804688 280.375 162.804688 L 283.09375 162.804688 C 285.425781 162.804688 287.660156 163.722656 289.320312 165.382812 L 304.453125 180.484375 L 304.453125 239.425781 L 180.460938 239.425781 L 180.460938 204.0625 "/>
<g clip-path="url(#clip6)" clip-rule="nonzero">
<path style=" stroke:none;fill-rule:nonzero;fill:rgb(87.449646%,69.799805%,54.508972%);fill-opacity:1;" d="M 215.886719 345.519531 C 176.746094 345.519531 145.035156 313.863281 145.035156 274.792969 L 145.035156 239.425781 L 369.398438 239.425781 L 369.398438 274.792969 C 369.398438 313.863281 337.6875 345.519531 298.546875 345.519531 L 215.886719 345.519531 "/>
</g>
<path style=" stroke:none;fill-rule:nonzero;fill:rgb(81.17981%,61.959839%,46.269226%);fill-opacity:1;" d="M 333.972656 268.898438 L 145.035156 268.898438 L 145.035156 257.109375 L 333.972656 257.109375 L 333.972656 268.898438 "/>
<g clip-path="url(#clip7)" clip-rule="nonzero">
<path style=" stroke:none;fill-rule:nonzero;fill:rgb(81.17981%,61.959839%,46.269226%);fill-opacity:1;" d="M 369.398438 268.898438 L 345.78125 268.898438 L 345.78125 257.109375 L 369.398438 257.109375 L 369.398438 268.898438 "/>
</g>
<path style=" stroke:none;fill-rule:nonzero;fill:rgb(54.899597%,75.689697%,32.159424%);fill-opacity:1;" d="M 192.269531 192.273438 C 188.1875 192.273438 184.242188 192.847656 180.460938 193.816406 L 180.460938 239.425781 L 239.503906 239.425781 C 239.503906 213.433594 218.308594 192.273438 192.269531 192.273438 "/>
<path style=" stroke:none;fill-rule:nonzero;fill:rgb(98.81897%,43.139648%,31.759644%);fill-opacity:1;" d="M 156.84375 239.425781 C 156.84375 219.902344 172.710938 204.0625 192.269531 204.0625 C 211.828125 204.0625 227.695312 219.902344 227.695312 239.425781 L 156.84375 239.425781 "/>
<path style=" stroke:none;fill-rule:nonzero;fill:rgb(54.899597%,75.689697%,32.159424%);fill-opacity:1;" d="M 292.921875 168.972656 C 256.480469 171.851562 227.695312 202.3125 227.695312 239.425781 L 304.453125 239.425781 L 304.453125 180.484375 L 292.921875 168.972656 "/>
<path style=" stroke:none;fill-rule:nonzero;fill:rgb(100%,91.758728%,65.489197%);fill-opacity:1;" d="M 239.503906 239.425781 C 239.503906 206.871094 265.933594 180.484375 298.546875 180.484375 C 331.160156 180.484375 357.589844 206.871094 357.589844 239.425781 L 239.503906 239.425781 "/>
<path style=" stroke:none;fill-rule:nonzero;fill:rgb(98.81897%,84.309387%,43.919373%);fill-opacity:1;" d="M 263.121094 239.425781 C 263.121094 219.902344 278.988281 204.0625 298.546875 204.0625 C 318.105469 204.0625 333.972656 219.902344 333.972656 239.425781 L 263.121094 239.425781 "/>
<path style=" stroke:none;fill-rule:nonzero;fill:rgb(100%,78.039551%,16.079712%);fill-opacity:1;" d="M 198.175781 227.636719 L 186.363281 227.636719 L 186.363281 215.851562 L 198.175781 215.851562 L 198.175781 227.636719 "/>
<path style=" stroke:none;fill-rule:nonzero;fill:rgb(66.668701%,69.799805%,74.119568%);fill-opacity:1;" d="M 345.78125 115.648438 C 342.53125 115.648438 339.878906 113.003906 339.878906 109.757812 C 339.878906 106.507812 342.53125 103.863281 345.78125 103.863281 C 349.035156 103.863281 351.6875 106.507812 351.6875 109.757812 C 351.6875 113.003906 349.035156 115.648438 345.78125 115.648438 "/>
<path style=" stroke:none;fill-rule:nonzero;fill:rgb(79.998779%,81.959534%,85.099792%);fill-opacity:1;" d="M 162.746094 139.226562 L 56.46875 139.226562 L 56.46875 127.4375 L 162.746094 127.4375 L 162.746094 139.226562 "/>
<path style=" stroke:none;fill-rule:nonzero;fill:rgb(79.998779%,81.959534%,85.099792%);fill-opacity:1;" d="M 198.175781 139.226562 L 174.554688 139.226562 L 174.554688 127.4375 L 198.175781 127.4375 L 198.175781 139.226562 "/>
<g clip-path="url(#clip8)" clip-rule="nonzero">
<path style=" stroke:none;fill-rule:nonzero;fill:rgb(100%,78.039551%,16.079712%);fill-opacity:1;" d="M 103.589844 317.179688 L 92.011719 314.921875 L 151.976562 9.554688 L 204.078125 9.554688 L 204.078125 21.34375 L 161.710938 21.34375 L 103.589844 317.179688 "/>
</g>
<path style=" stroke:none;fill-rule:nonzero;fill:rgb(91.369629%,34.118652%,24.708557%);fill-opacity:1;" d="M 158.894531 227.636719 C 157.605469 231.324219 156.84375 235.28125 156.84375 239.425781 L 227.695312 239.425781 C 227.695312 235.28125 226.933594 231.324219 225.644531 227.636719 L 158.894531 227.636719 "/>
<path style=" stroke:none;fill-rule:nonzero;fill:rgb(98.81897%,84.309387%,43.919373%);fill-opacity:1;" d="M 240.703125 227.636719 C 239.917969 231.460938 239.503906 235.398438 239.503906 239.425781 L 357.589844 239.425781 C 357.589844 235.398438 357.175781 231.460938 356.390625 227.636719 L 240.703125 227.636719 "/>
<path style=" stroke:none;fill-rule:nonzero;fill:rgb(100%,78.039551%,16.079712%);fill-opacity:1;" d="M 265.175781 227.636719 C 263.882812 231.324219 263.121094 235.28125 263.121094 239.425781 L 333.972656 239.425781 C 333.972656 235.28125 333.210938 231.324219 331.921875 227.636719 L 265.175781 227.636719 "/>
<g clip-path="url(#clip9)" clip-rule="nonzero">
<path style=" stroke:none;fill-rule:nonzero;fill:rgb(100%,78.039551%,16.079712%);fill-opacity:1;" d="M 121.625 71.71875 C 110.371094 62.351562 95.886719 56.710938 80.085938 56.710938 C 44.222656 56.710938 15.140625 85.742188 15.140625 121.542969 C 15.140625 137.316406 20.789062 151.773438 30.199219 163.035156 L 121.625 71.71875 "/>
</g>
<path style=" stroke:none;fill-rule:nonzero;fill:rgb(98.81897%,84.309387%,43.919373%);fill-opacity:1;" d="M 104.8125 88.527344 C 97.914062 83.371094 89.382812 80.285156 80.085938 80.285156 C 57.253906 80.285156 38.757812 98.75 38.757812 121.542969 C 38.757812 130.824219 41.847656 139.34375 47.011719 146.226562 L 104.8125 88.527344 "/>
</g>
</svg>
