<?xml version="1.0" encoding="UTF-8"?>
<svg xmlns="http://www.w3.org/2000/svg" xmlns:xlink="http://www.w3.org/1999/xlink" width="384pt" height="383.999986pt" viewBox="0 0 384 383.999986" version="1.2">
<defs>
<clipPath id="clip1">
  <path d="M 94 286 L 268 286 L 268 345.308594 L 94 345.308594 Z M 94 286 "/>
</clipPath>
</defs>
<g id="surface1">
<rect x="0" y="0" width="384" height="383.999986" style="fill:rgb(100%,100%,100%);fill-opacity:1;stroke:none;"/>
<rect x="0" y="0" width="384" height="383.999986" style="fill:rgb(100%,100%,100%);fill-opacity:1;stroke:none;"/>
<rect x="0" y="0" width="384" height="383.999986" style="fill:rgb(95.689392%,96.469116%,98.81897%);fill-opacity:1;stroke:none;"/>
<path style=" stroke:none;fill-rule:nonzero;fill:rgb(100%,100%,100%);fill-opacity:1;" d="M 263.15625 225.347656 C 314.589844 244.125 393.480469 97.136719 293.96875 51.835938 C 222.402344 19.257812 164.121094 113.640625 124.457031 113.640625 C 84.792969 113.640625 61.414062 86.175781 32.777344 125.089844 C 9.46875 156.765625 20.179688 244.125 101.566406 257.289062 "/>
<path style=" stroke:none;fill-rule:nonzero;fill:rgb(13.729858%,12.159729%,12.548828%);fill-opacity:1;" d="M 261.71875 229.289062 C 265.25 230.578125 268.914062 231.191406 272.585938 231.191406 C 277.152344 231.191406 281.726562 230.253906 286.195312 228.574219 C 294.023438 225.628906 301.566406 220.4375 308.566406 213.6875 C 319.054688 203.554688 328.324219 189.875 335.046875 174.503906 C 341.757812 159.128906 345.914062 142.054688 345.914062 125.125 C 345.917969 109.894531 342.527344 94.742188 334.480469 81.296875 C 326.445312 67.851562 313.765625 56.226562 295.710938 48.019531 C 284.652344 42.980469 273.765625 40.796875 263.246094 40.800781 C 247.996094 40.804688 233.605469 45.339844 220.160156 51.960938 C 210.070312 56.929688 200.488281 63.085938 191.382812 69.488281 C 177.734375 79.097656 165.144531 89.28125 153.789062 96.929688 C 148.117188 100.753906 142.757812 103.9375 137.824219 106.113281 C 132.882812 108.300781 128.402344 109.453125 124.457031 109.449219 C 113.421875 109.449219 103.605469 107.210938 94.300781 104.867188 C 89.652344 103.699219 85.136719 102.503906 80.652344 101.589844 C 76.171875 100.679688 71.726562 100.039062 67.226562 100.035156 C 64.042969 100.035156 60.832031 100.359375 57.625 101.144531 C 52.804688 102.316406 48.007812 104.535156 43.324219 108.035156 C 38.636719 111.539062 34.035156 116.300781 29.398438 122.601562 C 25.582031 127.800781 22.695312 134.152344 20.746094 141.25 C 18.792969 148.347656 17.773438 156.195312 17.773438 164.410156 C 17.773438 174.203125 19.222656 184.515625 22.332031 194.671875 C 26.988281 209.894531 35.40625 224.785156 48.324219 236.789062 C 61.234375 248.792969 78.644531 257.839844 100.894531 261.429688 L 102.234375 253.148438 C 88.402344 250.90625 76.804688 246.476562 67.132812 240.5625 C 52.640625 231.6875 42.4375 219.445312 35.804688 205.984375 C 29.175781 192.535156 26.167969 177.859375 26.171875 164.410156 C 26.167969 156.890625 27.109375 149.761719 28.839844 143.472656 C 30.566406 137.179688 33.089844 131.742188 36.160156 127.574219 C 41.855469 119.839844 47.152344 115.085938 52.167969 112.261719 C 54.679688 110.847656 57.132812 109.898438 59.617188 109.296875 C 62.097656 108.691406 64.605469 108.421875 67.226562 108.421875 C 70.914062 108.421875 74.8125 108.957031 78.96875 109.808594 C 85.210938 111.078125 92.015625 113.0625 99.542969 114.757812 C 107.066406 116.445312 115.324219 117.835938 124.457031 117.835938 C 129.402344 117.832031 134.355469 116.59375 139.34375 114.578125 C 148.070312 111.042969 157.015625 105.117188 166.46875 98.277344 C 180.621094 88.015625 195.886719 75.636719 212.128906 65.914062 C 220.242188 61.054688 228.589844 56.859375 237.117188 53.894531 C 245.648438 50.929688 254.347656 49.191406 263.246094 49.191406 C 272.609375 49.195312 282.21875 51.101562 292.226562 55.65625 C 308.929688 63.269531 320.121094 73.671875 327.277344 85.605469 C 334.414062 97.539062 337.519531 111.121094 337.519531 125.125 C 337.523438 136.972656 335.285156 149.09375 331.421875 160.585938 C 325.640625 177.824219 316.171875 193.625 305.4375 204.925781 C 300.074219 210.578125 294.402344 215.097656 288.800781 218.152344 C 283.195312 221.21875 277.695312 222.804688 272.585938 222.800781 C 269.835938 222.800781 267.183594 222.351562 264.597656 221.40625 L 261.71875 229.289062 "/>
<path style=" stroke:none;fill-rule:nonzero;fill:rgb(100%,100%,100%);fill-opacity:1;" d="M 263.15625 314.003906 C 263.15625 314.003906 233.222656 296.96875 180.730469 296.96875 C 128.242188 296.96875 107.425781 327.75 98.320312 316.421875 C 92.464844 277.492188 110.015625 248.75 98.304688 225.347656 C 106.039062 222.398438 173.050781 195.683594 213.609375 195.644531 C 245.9375 195.617188 257.988281 211.953125 263.15625 225.347656 C 257.757812 242 263.15625 314.003906 263.15625 314.003906 "/>
<path style=" stroke:none;fill-rule:nonzero;fill:rgb(13.729858%,12.159729%,12.548828%);fill-opacity:1;" d="M 263.15625 314.003906 L 265.234375 310.359375 C 265.007812 310.234375 257.242188 305.839844 242.847656 301.472656 C 228.457031 297.105469 207.429688 292.769531 180.730469 292.769531 C 157.871094 292.761719 140.660156 298.472656 127.972656 304.113281 C 121.628906 306.929688 116.394531 309.714844 112.222656 311.710938 C 110.140625 312.707031 108.324219 313.503906 106.832031 314.015625 C 105.34375 314.53125 104.191406 314.734375 103.488281 314.730469 C 102.960938 314.726562 102.691406 314.648438 102.460938 314.539062 C 102.230469 314.425781 101.980469 314.261719 101.59375 313.796875 L 98.320312 316.421875 L 102.476562 315.800781 C 101.625 310.160156 101.285156 304.742188 101.285156 299.503906 C 101.28125 289.289062 102.578125 279.765625 103.914062 270.742188 C 105.234375 261.710938 106.617188 253.183594 106.625 244.910156 C 106.625 241.226562 106.347656 237.589844 105.632812 234.003906 C 104.917969 230.421875 103.773438 226.894531 102.0625 223.472656 L 98.304688 225.347656 L 99.800781 229.269531 C 100.800781 228.882812 102.675781 228.152344 105.316406 227.144531 C 114.539062 223.621094 133.019531 216.769531 153.535156 210.816406 C 163.792969 207.84375 174.554688 205.09375 184.894531 203.089844 C 195.222656 201.089844 205.140625 199.847656 213.613281 199.839844 L 213.710938 199.839844 L 213.707031 199.578125 L 213.707031 199.839844 L 213.710938 199.839844 L 213.707031 199.578125 L 213.707031 199.839844 C 221.417969 199.839844 227.796875 200.8125 233.09375 202.421875 C 241.042969 204.835938 246.585938 208.628906 250.695312 212.953125 C 254.792969 217.28125 257.445312 222.199219 259.242188 226.859375 L 263.15625 225.347656 L 259.164062 224.054688 C 258.605469 225.785156 258.207031 227.746094 257.871094 229.972656 C 257.375 233.3125 257.054688 237.25 256.847656 241.617188 C 256.644531 245.976562 256.558594 250.757812 256.558594 255.734375 C 256.5625 268.992188 257.160156 283.613281 257.765625 294.945312 C 258.367188 306.269531 258.96875 314.296875 258.972656 314.320312 L 263.15625 314.003906 L 265.234375 310.359375 L 263.15625 314.003906 L 267.34375 313.691406 C 267.34375 313.691406 267.335938 313.574219 267.320312 313.335938 C 267.058594 309.777344 264.953125 280.140625 264.953125 255.734375 C 264.953125 249.230469 265.105469 243.105469 265.46875 237.992188 C 265.652344 235.441406 265.886719 233.144531 266.175781 231.207031 C 266.460938 229.273438 266.8125 227.6875 267.152344 226.640625 L 267.613281 225.226562 L 267.078125 223.839844 C 265.6875 220.253906 263.828125 216.417969 261.242188 212.675781 C 257.371094 207.066406 251.832031 201.671875 244.054688 197.765625 C 236.273438 193.855469 226.324219 191.449219 213.707031 191.449219 L 213.554688 191.453125 L 213.609375 195.644531 L 213.605469 191.453125 C 203.015625 191.464844 190.992188 193.195312 178.703125 195.785156 C 160.285156 199.675781 141.289062 205.53125 126.136719 210.695312 C 118.5625 213.273438 111.949219 215.683594 106.867188 217.589844 C 101.792969 219.488281 98.214844 220.894531 96.804688 221.429688 L 92.476562 223.082031 L 94.550781 227.222656 C 95.902344 229.925781 96.8125 232.710938 97.398438 235.636719 C 97.980469 238.570312 98.230469 241.648438 98.230469 244.910156 C 98.238281 252.222656 96.949219 260.429688 95.601562 269.515625 C 94.265625 278.605469 92.890625 288.582031 92.890625 299.503906 C 92.890625 305.105469 93.253906 310.953125 94.167969 317.042969 L 94.339844 318.164062 L 95.046875 319.046875 C 96.078125 320.339844 97.382812 321.425781 98.867188 322.125 C 100.351562 322.832031 101.960938 323.125 103.488281 323.117188 C 105.578125 323.113281 107.550781 322.632812 109.558594 321.949219 C 113.066406 320.734375 116.777344 318.835938 121.117188 316.679688 C 127.613281 313.4375 135.464844 309.578125 145.226562 306.507812 C 154.984375 303.445312 166.640625 301.164062 180.730469 301.160156 C 206.523438 301.164062 226.710938 305.347656 240.410156 309.5 C 247.257812 311.578125 252.480469 313.644531 255.964844 315.179688 C 257.710938 315.949219 259.015625 316.582031 259.871094 317.015625 C 260.300781 317.234375 260.617188 317.398438 260.820312 317.507812 C 260.921875 317.5625 260.996094 317.601562 261.039062 317.628906 L 261.082031 317.652344 L 267.933594 321.554688 L 267.34375 313.691406 L 263.15625 314.003906 "/>
<path style=" stroke:none;fill-rule:nonzero;fill:rgb(100%,100%,100%);fill-opacity:1;" d="M 263.15625 316.035156 C 263.15625 329.824219 226.257812 341.007812 180.730469 341.007812 C 135.210938 341.007812 98.304688 329.824219 98.304688 316.035156 C 98.304688 302.238281 135.210938 291.054688 180.730469 291.054688 C 226.257812 291.054688 263.15625 302.238281 263.15625 316.035156 "/>
<g clip-path="url(#clip1)" clip-rule="nonzero">
<path style=" stroke:none;fill-rule:nonzero;fill:rgb(13.729858%,12.159729%,12.548828%);fill-opacity:1;" d="M 263.15625 316.035156 L 258.960938 316.035156 C 258.957031 316.429688 258.898438 316.816406 258.753906 317.253906 C 258.480469 318.070312 257.871094 319.089844 256.753906 320.230469 C 255.777344 321.222656 254.433594 322.285156 252.746094 323.339844 C 249.792969 325.195312 245.800781 327.015625 240.992188 328.65625 C 233.777344 331.113281 224.730469 333.167969 214.488281 334.589844 C 204.246094 336.011719 192.800781 336.8125 180.730469 336.8125 C 169.523438 336.8125 158.851562 336.125 149.179688 334.882812 C 141.929688 333.953125 135.238281 332.714844 129.320312 331.234375 C 124.878906 330.125 120.871094 328.878906 117.398438 327.539062 C 112.183594 325.535156 108.160156 323.285156 105.707031 321.152344 C 104.46875 320.09375 103.636719 319.085938 103.15625 318.230469 C 102.671875 317.363281 102.507812 316.691406 102.503906 316.035156 C 102.503906 315.640625 102.566406 315.25 102.710938 314.8125 C 102.980469 313.996094 103.59375 312.976562 104.714844 311.835938 C 105.6875 310.84375 107.03125 309.78125 108.714844 308.722656 C 111.671875 306.871094 115.664062 305.046875 120.472656 303.410156 C 127.691406 300.949219 136.734375 298.894531 146.976562 297.472656 C 157.21875 296.050781 168.664062 295.25 180.730469 295.25 C 191.941406 295.25 202.613281 295.9375 212.28125 297.179688 C 219.535156 298.109375 226.222656 299.347656 232.144531 300.828125 C 236.582031 301.9375 240.589844 303.183594 244.066406 304.527344 C 249.285156 306.527344 253.300781 308.78125 255.761719 310.910156 C 256.992188 311.96875 257.824219 312.980469 258.308594 313.835938 C 258.796875 314.703125 258.957031 315.375 258.960938 316.035156 L 267.355469 316.035156 C 267.359375 314.707031 267.128906 313.390625 266.714844 312.148438 C 265.929688 309.816406 264.523438 307.773438 262.742188 305.960938 C 261.1875 304.378906 259.328125 302.949219 257.207031 301.617188 C 253.492188 299.292969 248.957031 297.265625 243.703125 295.46875 C 235.820312 292.785156 226.3125 290.648438 215.648438 289.164062 C 204.984375 287.683594 193.171875 286.859375 180.730469 286.859375 C 169.179688 286.859375 158.164062 287.570312 148.113281 288.859375 C 140.574219 289.824219 133.574219 291.117188 127.28125 292.691406 C 122.558594 293.871094 118.238281 295.210938 114.375 296.695312 C 108.578125 298.945312 103.804688 301.488281 100.226562 304.554688 C 98.441406 306.09375 96.945312 307.777344 95.851562 309.695312 C 94.761719 311.605469 94.105469 313.785156 94.105469 316.035156 C 94.105469 317.363281 94.332031 318.679688 94.753906 319.921875 C 95.535156 322.253906 96.945312 324.292969 98.71875 326.101562 C 100.28125 327.6875 102.136719 329.117188 104.257812 330.449219 C 107.972656 332.773438 112.507812 334.800781 117.765625 336.59375 C 125.648438 339.277344 135.15625 341.414062 145.820312 342.898438 C 156.480469 344.378906 168.292969 345.203125 180.730469 345.203125 C 192.285156 345.203125 203.296875 344.492188 213.351562 343.203125 C 220.890625 342.238281 227.890625 340.945312 234.183594 339.375 C 238.902344 338.191406 243.222656 336.855469 247.089844 335.363281 C 252.886719 333.121094 257.660156 330.578125 261.238281 327.511719 C 263.023438 325.972656 264.519531 324.285156 265.613281 322.371094 C 266.699219 320.464844 267.363281 318.285156 267.355469 316.035156 L 263.15625 316.035156 "/>
</g>
<path style=" stroke:none;fill-rule:nonzero;fill:rgb(100%,100%,100%);fill-opacity:1;" d="M 98.304688 225.347656 C 98.304688 225.347656 86.050781 229.25 75.734375 221.808594 C 64.554688 213.738281 63.707031 201.207031 63.707031 201.207031 "/>
<path style=" stroke:none;fill-rule:nonzero;fill:rgb(13.729858%,12.159729%,12.548828%);fill-opacity:1;" d="M 99.550781 229.355469 C 99.550781 229.355469 99.484375 229.371094 99.34375 229.40625 C 99.230469 229.425781 99.058594 229.464844 98.835938 229.511719 C 98.40625 229.589844 97.808594 229.6875 97.054688 229.777344 C 95.554688 229.957031 93.4375 230.101562 90.90625 229.9375 C 88.382812 229.773438 85.4375 229.292969 82.460938 228.214844 C 79.484375 227.152344 76.511719 225.464844 74.035156 223.265625 C 73.503906 222.789062 72.863281 222.179688 72.296875 221.597656 C 71.734375 221.019531 71.210938 220.417969 70.703125 219.816406 C 69.695312 218.597656 68.820312 217.328125 68.058594 216.054688 C 66.542969 213.503906 65.535156 210.953125 64.890625 208.730469 C 64.25 206.507812 63.957031 204.609375 63.824219 203.289062 C 63.691406 201.964844 63.707031 201.207031 63.707031 201.207031 C 63.707031 201.207031 63.828125 201.957031 64.195312 203.21875 C 64.558594 204.476562 65.175781 206.25 66.164062 208.234375 C 67.152344 210.214844 68.53125 212.40625 70.308594 214.4375 C 71.199219 215.453125 72.179688 216.433594 73.25 217.332031 C 73.789062 217.777344 74.339844 218.210938 74.910156 218.617188 C 75.480469 219.019531 76 219.367188 76.675781 219.777344 C 79.003906 221.214844 81.570312 222.144531 84.03125 222.574219 C 86.492188 223.019531 88.851562 223.007812 90.835938 222.800781 C 92.824219 222.589844 94.449219 222.199219 95.53125 221.882812 C 96.074219 221.71875 96.480469 221.578125 96.734375 221.480469 C 96.847656 221.433594 96.941406 221.394531 97 221.375 L 97.054688 221.34375 L 99.550781 229.355469 "/>
<path style=" stroke:none;fill-rule:nonzero;fill:rgb(13.729858%,12.159729%,12.548828%);fill-opacity:1;" d="M 91.773438 125.09375 C 91.773438 125.09375 92.234375 125.273438 93.097656 125.617188 C 93.523438 125.796875 94.054688 126.015625 94.675781 126.269531 C 94.984375 126.414062 95.324219 126.527344 95.691406 126.621094 C 96.046875 126.726562 96.433594 126.839844 96.839844 126.960938 C 98.390625 127.492188 100.410156 127.894531 102.671875 128.304688 C 103.828125 128.417969 105.019531 128.65625 106.3125 128.742188 C 107.609375 128.78125 108.9375 128.96875 110.351562 128.941406 C 111.769531 128.914062 113.222656 129.007812 114.738281 128.867188 C 115.496094 128.828125 116.265625 128.792969 117.046875 128.753906 C 117.824219 128.6875 118.617188 128.582031 119.414062 128.503906 C 122.609375 128.199219 125.949219 127.574219 129.355469 126.828125 C 132.765625 126.046875 136.203125 124.984375 139.609375 123.773438 C 142.972656 122.480469 146.332031 120.945312 149.28125 119.136719 L 150.527344 118.363281 C 150.949219 118.105469 151.363281 117.847656 151.707031 117.597656 L 153.878906 116.066406 C 155.414062 114.925781 156.945312 113.789062 158.464844 112.660156 C 161.554688 110.335938 164.824219 108.035156 168.3125 106.15625 C 169.242188 105.695312 170.15625 105.234375 171.070312 104.78125 C 171.917969 104.4375 172.699219 104.105469 173.585938 103.785156 C 174.546875 103.480469 175.511719 103.125 176.433594 102.894531 C 177.367188 102.679688 178.257812 102.398438 179.175781 102.28125 C 182.820312 101.625 186.328125 101.644531 189.4375 102.0625 C 192.558594 102.488281 195.289062 103.285156 197.609375 104.136719 C 199.929688 105.019531 201.847656 105.953125 203.386719 106.785156 C 204.925781 107.613281 206.082031 108.347656 206.863281 108.851562 C 207.636719 109.363281 208.050781 109.636719 208.050781 109.636719 C 208.050781 109.636719 207.574219 109.515625 206.671875 109.292969 C 205.78125 109.042969 204.453125 108.746094 202.792969 108.363281 C 201.128906 107.996094 199.109375 107.589844 196.8125 107.28125 C 194.515625 106.992188 191.933594 106.792969 189.191406 106.921875 C 186.453125 107.035156 183.558594 107.492188 180.667969 108.417969 C 179.933594 108.617188 179.222656 108.945312 178.492188 109.195312 C 177.773438 109.464844 177.128906 109.804688 176.433594 110.101562 C 175.660156 110.503906 174.878906 110.910156 174.085938 111.320312 C 174.289062 111.222656 174.121094 111.304688 174.160156 111.285156 L 174.125 111.308594 L 174.058594 111.347656 L 173.929688 111.429688 L 173.664062 111.59375 L 173.136719 111.921875 C 172.78125 112.140625 172.425781 112.359375 172.070312 112.582031 C 171.347656 112.992188 170.671875 113.570312 169.953125 114.039062 C 169.242188 114.519531 168.527344 115.0625 167.820312 115.617188 C 166.398438 116.695312 164.960938 117.902344 163.464844 119.082031 C 162.714844 119.691406 161.960938 120.300781 161.203125 120.914062 C 160.414062 121.523438 159.628906 122.136719 158.835938 122.75 L 156.242188 124.613281 C 155.796875 124.945312 155.382812 125.207031 154.972656 125.457031 L 153.734375 126.246094 C 149.996094 128.484375 146.183594 130.15625 142.292969 131.441406 C 140.347656 132.027344 138.417969 132.644531 136.46875 133.039062 C 135.5 133.242188 134.546875 133.503906 133.578125 133.660156 C 132.617188 133.816406 131.65625 133.96875 130.707031 134.125 C 126.894531 134.644531 123.1875 134.902344 119.667969 134.789062 C 118.785156 134.757812 117.917969 134.746094 117.066406 134.699219 C 116.214844 134.617188 115.378906 134.539062 114.550781 134.460938 C 112.90625 134.332031 111.324219 134.007812 109.816406 133.75 C 109.058594 133.632812 108.332031 133.4375 107.617188 133.25 C 106.910156 133.066406 106.214844 132.886719 105.539062 132.707031 C 104.199219 132.320312 102.957031 131.820312 101.792969 131.40625 C 99.503906 130.425781 97.574219 129.492188 96.082031 128.460938 C 94.53125 127.558594 93.566406 126.621094 92.847656 126.027344 C 92.144531 125.414062 91.773438 125.09375 91.773438 125.09375 "/>
<path style=" stroke:none;fill-rule:nonzero;fill:rgb(100%,100%,100%);fill-opacity:1;" d="M 255.164062 212.796875 C 263.480469 212.765625 269.773438 208.078125 272.773438 200.773438 "/>
<path style=" stroke:none;fill-rule:nonzero;fill:rgb(13.729858%,12.159729%,12.548828%);fill-opacity:1;" d="M 254.996094 208.605469 C 254.996094 208.605469 255.355469 208.65625 255.976562 208.746094 C 256.25 208.785156 256.574219 208.832031 256.949219 208.878906 C 257.265625 208.914062 257.613281 208.992188 258.074219 208.988281 C 258.519531 209.011719 259.007812 209.03125 259.519531 208.992188 C 260.046875 208.988281 260.582031 208.90625 261.152344 208.835938 C 261.707031 208.730469 262.3125 208.644531 262.890625 208.457031 C 263.488281 208.304688 264.074219 208.078125 264.675781 207.847656 C 265.246094 207.582031 265.851562 207.324219 266.398438 206.984375 C 266.972656 206.679688 267.484375 206.300781 268.011719 205.941406 C 268.492188 205.546875 269.007812 205.1875 269.417969 204.769531 C 269.859375 204.375 270.257812 203.976562 270.601562 203.582031 C 270.96875 203.203125 271.265625 202.828125 271.535156 202.488281 C 271.8125 202.152344 272.039062 201.847656 272.210938 201.589844 C 272.570312 201.074219 272.773438 200.773438 272.773438 200.773438 C 272.773438 200.773438 272.6875 201.125 272.539062 201.742188 C 272.46875 202.050781 272.363281 202.425781 272.222656 202.847656 C 272.089844 203.273438 271.9375 203.761719 271.71875 204.269531 C 271.527344 204.796875 271.277344 205.347656 270.984375 205.929688 C 270.714844 206.523438 270.339844 207.097656 269.976562 207.726562 C 269.570312 208.320312 269.160156 208.957031 268.65625 209.546875 C 268.179688 210.164062 267.625 210.722656 267.058594 211.300781 C 266.46875 211.84375 265.863281 212.390625 265.210938 212.863281 C 264.578125 213.371094 263.890625 213.773438 263.222656 214.191406 C 262.542969 214.558594 261.875 214.9375 261.207031 215.210938 C 260.550781 215.523438 259.90625 215.753906 259.304688 215.960938 C 258.726562 216.183594 258.097656 216.328125 257.558594 216.46875 C 257.289062 216.535156 257.039062 216.597656 256.808594 216.65625 C 256.617188 216.699219 256.453125 216.734375 256.296875 216.769531 C 255.679688 216.910156 255.328125 216.988281 255.328125 216.988281 L 254.996094 208.605469 "/>
<path style=" stroke:none;fill-rule:nonzero;fill:rgb(100%,100%,100%);fill-opacity:1;" d="M 193.730469 197.3125 C 204.90625 195.621094 210.4375 185.128906 210.914062 178.027344 "/>
<path style=" stroke:none;fill-rule:nonzero;fill:rgb(13.729858%,12.159729%,12.548828%);fill-opacity:1;" d="M 192.882812 193.207031 C 192.882812 193.207031 193.324219 193.183594 194.089844 193.140625 C 194.449219 193.121094 195.019531 193.105469 195.316406 193.050781 C 195.6875 192.988281 196.097656 193 196.609375 192.886719 C 197.117188 192.742188 197.71875 192.671875 198.304688 192.445312 C 198.894531 192.238281 199.542969 192.039062 200.164062 191.707031 C 200.820312 191.4375 201.4375 191.042969 202.09375 190.652344 C 202.429688 190.460938 202.71875 190.214844 203.042969 189.988281 C 203.363281 189.765625 203.683594 189.527344 203.976562 189.257812 C 204.269531 188.992188 204.585938 188.742188 204.878906 188.464844 C 205.15625 188.179688 205.4375 187.894531 205.71875 187.605469 C 206.011719 187.328125 206.242188 187.007812 206.507812 186.707031 C 206.761719 186.402344 207.027344 186.101562 207.238281 185.785156 C 207.472656 185.464844 207.695312 185.152344 207.917969 184.847656 C 208.117188 184.523438 208.3125 184.210938 208.5 183.90625 C 208.898438 183.292969 209.171875 182.664062 209.480469 182.097656 C 209.730469 181.515625 209.992188 180.976562 210.167969 180.484375 C 210.332031 179.992188 210.507812 179.558594 210.605469 179.191406 C 210.800781 178.449219 210.914062 178.027344 210.914062 178.027344 C 210.914062 178.027344 210.933594 178.46875 210.964844 179.238281 C 210.976562 179.628906 210.941406 180.097656 210.925781 180.648438 C 210.90625 181.195312 210.8125 181.796875 210.738281 182.476562 C 210.605469 183.132812 210.515625 183.878906 210.304688 184.632812 C 210.207031 185.011719 210.105469 185.402344 210 185.804688 C 209.867188 186.199219 209.730469 186.601562 209.59375 187.015625 C 209.46875 187.433594 209.289062 187.835938 209.117188 188.25 C 208.933594 188.660156 208.777344 189.101562 208.554688 189.503906 C 208.34375 189.917969 208.125 190.335938 207.914062 190.757812 C 207.679688 191.167969 207.421875 191.570312 207.167969 191.980469 C 206.925781 192.394531 206.640625 192.785156 206.347656 193.171875 C 206.050781 193.554688 205.78125 193.960938 205.460938 194.320312 C 204.820312 195.046875 204.1875 195.78125 203.472656 196.394531 C 202.792969 197.0625 202.050781 197.601562 201.34375 198.132812 C 200.640625 198.675781 199.890625 199.046875 199.222656 199.464844 C 198.539062 199.863281 197.773438 200.15625 197.152344 200.441406 C 196.449219 200.753906 196.097656 200.855469 195.714844 201.003906 C 194.992188 201.269531 194.582031 201.421875 194.582031 201.421875 L 192.882812 193.207031 "/>
<path style=" stroke:none;fill-rule:nonzero;fill:rgb(100%,100%,100%);fill-opacity:1;" d="M 103.089844 200.773438 C 108.15625 204.15625 111.746094 207.605469 117.597656 209.875 C 123.636719 212.214844 129.617188 212.703125 135.757812 210.753906 C 141.820312 208.835938 148.214844 206.375 153.015625 202.066406 C 158.015625 197.570312 159.144531 193.425781 161.082031 187.902344 "/>
<path style=" stroke:none;fill-rule:nonzero;fill:rgb(13.729858%,12.159729%,12.548828%);fill-opacity:1;" d="M 103.089844 200.773438 C 103.089844 200.773438 103.367188 200.867188 103.886719 201.035156 C 104.394531 201.226562 105.167969 201.453125 106.097656 201.855469 C 108 202.609375 110.578125 203.914062 113.539062 205.132812 C 114.289062 205.425781 115.039062 205.753906 115.839844 205.996094 C 116.628906 206.285156 117.449219 206.519531 118.289062 206.75 C 119.175781 206.964844 120.085938 207.183594 121.015625 207.40625 C 121.445312 207.464844 121.871094 207.523438 122.296875 207.605469 L 122.929688 207.714844 L 123.613281 207.78125 C 125.441406 208.035156 127.285156 207.980469 129.125 207.855469 C 130.957031 207.703125 132.808594 207.257812 134.582031 206.726562 C 136.789062 206.039062 138.6875 205.398438 140.65625 204.699219 C 141.152344 204.539062 141.605469 204.332031 142.082031 204.152344 C 142.546875 203.964844 143.042969 203.8125 143.484375 203.609375 C 144.386719 203.21875 145.296875 202.84375 146.132812 202.425781 C 147.875 201.632812 149.386719 200.699219 150.832031 199.773438 L 150.902344 199.726562 C 150.933594 199.707031 150.714844 199.914062 150.816406 199.816406 L 150.832031 199.800781 L 150.867188 199.773438 L 151.015625 199.664062 L 151.296875 199.445312 L 151.863281 199.011719 L 152.417969 198.582031 L 152.695312 198.371094 L 152.910156 198.191406 C 153.457031 197.695312 154.050781 197.277344 154.558594 196.703125 C 154.828125 196.429688 155.089844 196.167969 155.347656 195.90625 C 155.582031 195.625 155.8125 195.347656 156.039062 195.078125 C 156.523438 194.550781 156.894531 193.96875 157.296875 193.445312 C 158.070312 192.371094 158.722656 191.359375 159.273438 190.523438 C 159.816406 189.6875 160.289062 189.03125 160.589844 188.582031 C 160.914062 188.140625 161.082031 187.902344 161.082031 187.902344 C 161.082031 187.902344 161.070312 188.195312 161.046875 188.742188 C 161.003906 189.28125 160.980469 190.082031 160.863281 191.09375 C 160.761719 192.101562 160.589844 193.328125 160.265625 194.753906 C 160.089844 195.46875 159.90625 196.226562 159.601562 197.019531 C 159.464844 197.421875 159.308594 197.828125 159.144531 198.246094 C 158.949219 198.652344 158.746094 199.066406 158.542969 199.492188 C 158.164062 200.351562 157.535156 201.199219 156.941406 202.109375 L 156.710938 202.441406 L 156.496094 202.71875 L 156.058594 203.265625 L 155.613281 203.816406 L 155.277344 204.242188 L 155.234375 204.296875 C 155.324219 204.210938 155.101562 204.429688 155.113281 204.410156 L 155.042969 204.484375 C 153.546875 206.03125 151.832031 207.597656 149.890625 208.847656 C 147.972656 210.167969 145.882812 211.273438 143.730469 212.234375 C 141.609375 213.203125 139.261719 214.007812 137.199219 214.695312 C 134.675781 215.421875 132.125 215.96875 129.535156 215.976562 C 128.890625 216.023438 128.253906 215.957031 127.621094 215.9375 C 126.988281 215.898438 126.359375 215.875 125.746094 215.765625 C 125.128906 215.671875 124.519531 215.582031 123.914062 215.488281 C 123.316406 215.363281 122.738281 215.195312 122.160156 215.050781 L 121.304688 214.828125 L 120.4375 214.539062 C 119.863281 214.347656 119.300781 214.140625 118.753906 213.929688 C 118.289062 213.71875 117.832031 213.507812 117.378906 213.300781 L 116.710938 212.988281 L 116.542969 212.910156 C 116.324219 212.824219 116.472656 212.878906 116.414062 212.859375 L 116.394531 212.847656 L 116.347656 212.820312 L 116.261719 212.773438 L 115.910156 212.578125 C 114.023438 211.570312 112.378906 210.410156 111 209.253906 C 109.621094 208.097656 108.492188 206.957031 107.527344 205.929688 C 106.574219 204.894531 105.773438 203.984375 105.128906 203.226562 C 104.476562 202.453125 103.964844 201.84375 103.617188 201.429688 C 103.273438 201.003906 103.089844 200.773438 103.089844 200.773438 "/>
</g>
</svg>
