<?xml version="1.0" encoding="UTF-8"?>
<svg xmlns="http://www.w3.org/2000/svg" xmlns:xlink="http://www.w3.org/1999/xlink" width="384pt" height="383.999986pt" viewBox="0 0 384 383.999986" version="1.2">
<defs>
<clipPath id="clip1">
  <path d="M 63.089844 6.597656 L 321.089844 6.597656 L 321.089844 379.945312 L 63.089844 379.945312 Z M 63.089844 6.597656 "/>
</clipPath>
</defs>
<g id="surface1">
<path style=" stroke:none;fill-rule:nonzero;fill:rgb(100%,100%,100%);fill-opacity:1;" d="M 303.183594 198.296875 C 313.6875 179.792969 319.695312 158.421875 319.695312 135.644531 C 319.695312 65.375 262.605469 8.417969 192.183594 8.417969 C 121.757812 8.417969 64.671875 65.375 64.671875 135.644531 C 64.671875 159.023438 71 180.929688 82.027344 199.753906 L 192.183594 378.015625 L 303.183594 198.296875 "/>
<g clip-path="url(#clip1)" clip-rule="nonzero">
<path style=" stroke:none;fill-rule:nonzero;fill:rgb(13.729858%,12.159729%,12.548828%);fill-opacity:1;" d="M 303.183594 198.296875 L 304.574219 199.082031 C 315.210938 180.347656 321.296875 158.703125 321.296875 135.644531 C 321.296875 64.492188 263.492188 6.824219 192.183594 6.824219 C 120.875 6.824219 63.070312 64.492188 63.070312 135.644531 C 63.070312 159.308594 69.480469 181.5 80.644531 200.554688 L 80.664062 200.589844 L 190.820312 378.851562 C 191.113281 379.324219 191.628906 379.609375 192.183594 379.609375 C 192.738281 379.609375 193.253906 379.324219 193.546875 378.851562 L 304.542969 199.132812 L 304.574219 199.082031 L 303.183594 198.296875 L 301.820312 197.457031 L 192.183594 374.972656 L 83.386719 198.914062 L 82.027344 199.753906 L 83.410156 198.949219 C 72.515625 180.355469 66.269531 158.734375 66.269531 135.644531 C 66.269531 100.945312 80.359375 69.546875 103.148438 46.808594 C 125.9375 24.074219 157.40625 10.015625 192.183594 10.015625 C 226.957031 10.015625 258.429688 24.074219 281.21875 46.808594 C 304.011719 69.546875 318.097656 100.945312 318.097656 135.644531 C 318.097656 158.140625 312.167969 179.234375 301.789062 197.507812 L 303.183594 198.296875 L 301.820312 197.457031 L 303.183594 198.296875 "/>
</g>
<path style=" stroke:none;fill-rule:nonzero;fill:rgb(100%,100%,100%);fill-opacity:1;" d="M 299.039062 135.644531 C 299.039062 194.53125 251.203125 242.257812 192.183594 242.257812 C 133.164062 242.257812 85.324219 194.53125 85.324219 135.644531 C 85.324219 76.753906 133.164062 29.019531 192.183594 29.019531 C 251.203125 29.019531 299.039062 76.753906 299.039062 135.644531 "/>
<path style=" stroke:none;fill-rule:nonzero;fill:rgb(13.729858%,12.159729%,12.548828%);fill-opacity:1;" d="M 299.039062 135.644531 L 297.441406 135.644531 C 297.441406 164.652344 285.664062 190.890625 266.613281 209.902344 C 247.5625 228.90625 221.257812 240.65625 192.183594 240.65625 C 163.109375 240.65625 136.804688 228.90625 117.75 209.902344 C 98.699219 190.890625 86.921875 164.652344 86.921875 135.644531 C 86.921875 106.636719 98.699219 80.386719 117.75 61.375 C 136.804688 42.367188 163.109375 30.613281 192.183594 30.613281 C 221.257812 30.613281 247.5625 42.367188 266.613281 61.375 C 285.664062 80.386719 297.441406 106.636719 297.441406 135.644531 L 300.636719 135.644531 C 300.636719 75.875 252.089844 27.421875 192.183594 27.421875 C 132.277344 27.421875 83.726562 75.875 83.722656 135.644531 C 83.726562 195.414062 132.277344 243.847656 192.183594 243.851562 C 252.089844 243.847656 300.636719 195.414062 300.636719 135.644531 L 299.039062 135.644531 "/>
<path style=" stroke:none;fill-rule:nonzero;fill:rgb(100%,100%,100%);fill-opacity:1;" d="M 266.519531 142.246094 C 258.675781 108.496094 228.390625 83.339844 192.179688 83.339844 C 155.972656 83.339844 125.683594 108.496094 117.835938 142.246094 L 266.519531 142.246094 "/>
<path style=" stroke:none;fill-rule:nonzero;fill:rgb(13.729858%,12.159729%,12.548828%);fill-opacity:1;" d="M 266.519531 142.246094 L 268.078125 141.882812 C 260.066406 107.425781 229.148438 81.75 192.179688 81.746094 C 155.214844 81.75 124.292969 107.425781 116.28125 141.882812 C 116.167969 142.355469 116.285156 142.855469 116.585938 143.234375 C 116.886719 143.617188 117.351562 143.839844 117.835938 143.839844 L 266.519531 143.839844 C 267.007812 143.839844 267.472656 143.617188 267.773438 143.234375 C 268.078125 142.855469 268.191406 142.355469 268.078125 141.882812 L 266.519531 142.246094 L 266.519531 140.648438 L 117.835938 140.648438 L 117.835938 142.246094 L 119.394531 142.601562 C 127.078125 109.570312 156.730469 84.933594 192.179688 84.9375 C 227.632812 84.933594 257.28125 109.570312 264.964844 142.601562 L 266.519531 142.246094 L 266.519531 140.648438 L 266.519531 142.246094 "/>
<path style=" stroke:none;fill-rule:nonzero;fill:rgb(100%,100%,100%);fill-opacity:1;" d="M 117.332031 166.855469 C 124.367188 193.648438 155.203125 187.269531 192.179688 187.269531 C 229.160156 187.269531 259.988281 193.648438 267.019531 166.855469 L 117.332031 166.855469 "/>
<path style=" stroke:none;fill-rule:nonzero;fill:rgb(13.729858%,12.159729%,12.548828%);fill-opacity:1;" d="M 117.332031 166.855469 L 115.789062 167.257812 C 117.03125 171.988281 119.015625 175.820312 121.664062 178.851562 C 125.644531 183.410156 131.050781 186.082031 137.355469 187.597656 C 143.667969 189.117188 150.933594 189.527344 158.90625 189.527344 C 169.035156 189.527344 180.3125 188.863281 192.179688 188.863281 C 204.046875 188.863281 215.324219 189.527344 225.445312 189.527344 C 236.082031 189.515625 245.460938 188.816406 252.988281 185.671875 C 256.746094 184.09375 260.042969 181.886719 262.691406 178.851562 C 265.34375 175.820312 267.328125 171.988281 268.570312 167.257812 C 268.695312 166.773438 268.589844 166.269531 268.289062 165.878906 C 267.988281 165.488281 267.519531 165.257812 267.019531 165.257812 L 117.332031 165.257812 C 116.839844 165.257812 116.371094 165.488281 116.070312 165.878906 C 115.769531 166.269531 115.664062 166.773438 115.789062 167.257812 L 117.332031 166.855469 L 117.332031 168.449219 L 267.019531 168.449219 L 267.019531 166.855469 L 265.476562 166.445312 C 264.335938 170.789062 262.574219 174.132812 260.28125 176.753906 C 256.847656 180.679688 252.15625 183.070312 246.25 184.5 C 240.363281 185.917969 233.3125 186.339844 225.445312 186.335938 C 215.460938 186.335938 204.164062 185.675781 192.179688 185.675781 C 180.195312 185.675781 168.898438 186.335938 158.90625 186.335938 C 148.421875 186.34375 139.390625 185.582031 132.609375 182.730469 C 129.210938 181.300781 126.371094 179.375 124.074219 176.753906 C 121.785156 174.132812 120.023438 170.792969 118.882812 166.445312 L 117.332031 166.855469 L 117.332031 168.449219 L 117.332031 166.855469 "/>
<path style=" stroke:none;fill-rule:nonzero;fill:rgb(100%,100%,100%);fill-opacity:1;" d="M 145.035156 128.433594 L 149.757812 126.082031 "/>
<path style=" stroke:none;fill-rule:nonzero;fill:rgb(13.729858%,12.159729%,12.548828%);fill-opacity:1;" d="M 145.746094 129.863281 L 150.472656 127.507812 C 151.261719 127.113281 151.582031 126.160156 151.191406 125.371094 C 150.796875 124.578125 149.835938 124.261719 149.042969 124.65625 L 144.320312 127.011719 C 143.53125 127.402344 143.210938 128.359375 143.601562 129.148438 C 143.996094 129.933594 144.957031 130.253906 145.746094 129.863281 "/>
<path style=" stroke:none;fill-rule:nonzero;fill:rgb(100%,100%,100%);fill-opacity:1;" d="M 155.789062 111.984375 L 158.578125 107.511719 "/>
<path style=" stroke:none;fill-rule:nonzero;fill:rgb(13.729858%,12.159729%,12.548828%);fill-opacity:1;" d="M 157.148438 112.828125 L 159.9375 108.355469 C 160.402344 107.609375 160.175781 106.625 159.425781 106.15625 C 158.675781 105.691406 157.6875 105.921875 157.222656 106.667969 L 154.433594 111.140625 C 153.964844 111.886719 154.195312 112.871094 154.945312 113.335938 C 155.695312 113.800781 156.679688 113.574219 157.148438 112.828125 "/>
<path style=" stroke:none;fill-rule:nonzero;fill:rgb(100%,100%,100%);fill-opacity:1;" d="M 160.574219 121.125 L 164.464844 124.683594 "/>
<path style=" stroke:none;fill-rule:nonzero;fill:rgb(13.729858%,12.159729%,12.548828%);fill-opacity:1;" d="M 159.492188 122.300781 L 163.382812 125.859375 C 164.035156 126.453125 165.046875 126.410156 165.640625 125.765625 C 166.242188 125.113281 166.195312 124.101562 165.546875 123.507812 L 161.65625 119.949219 C 161.003906 119.347656 159.992188 119.394531 159.394531 120.042969 C 158.800781 120.691406 158.839844 121.699219 159.492188 122.300781 "/>
<path style=" stroke:none;fill-rule:nonzero;fill:rgb(100%,100%,100%);fill-opacity:1;" d="M 172.941406 113.75 L 177.671875 111.394531 "/>
<path style=" stroke:none;fill-rule:nonzero;fill:rgb(13.729858%,12.159729%,12.548828%);fill-opacity:1;" d="M 173.65625 115.179688 L 178.382812 112.820312 C 179.175781 112.425781 179.496094 111.46875 179.101562 110.679688 C 178.703125 109.894531 177.742188 109.574219 176.957031 109.964844 L 172.230469 112.320312 C 171.4375 112.714844 171.117188 113.675781 171.511719 114.464844 C 171.910156 115.253906 172.867188 115.570312 173.65625 115.179688 "/>
<path style=" stroke:none;fill-rule:nonzero;fill:rgb(100%,100%,100%);fill-opacity:1;" d="M 183.691406 97.292969 L 186.488281 92.824219 "/>
<path style=" stroke:none;fill-rule:nonzero;fill:rgb(13.729858%,12.159729%,12.548828%);fill-opacity:1;" d="M 185.050781 98.136719 L 187.84375 93.667969 C 188.3125 92.921875 188.085938 91.9375 187.335938 91.472656 C 186.585938 91 185.601562 91.230469 185.132812 91.976562 L 182.335938 96.449219 C 181.867188 97.195312 182.097656 98.175781 182.847656 98.648438 C 183.59375 99.113281 184.578125 98.882812 185.050781 98.136719 "/>
<path style=" stroke:none;fill-rule:nonzero;fill:rgb(100%,100%,100%);fill-opacity:1;" d="M 188.480469 106.4375 L 192.371094 109.996094 "/>
<path style=" stroke:none;fill-rule:nonzero;fill:rgb(13.729858%,12.159729%,12.548828%);fill-opacity:1;" d="M 187.402344 107.609375 L 191.289062 111.171875 C 191.9375 111.765625 192.949219 111.726562 193.550781 111.074219 C 194.144531 110.425781 194.101562 109.414062 193.449219 108.820312 L 189.5625 105.261719 C 188.914062 104.664062 187.902344 104.707031 187.304688 105.355469 C 186.707031 106.003906 186.75 107.015625 187.402344 107.609375 "/>
<path style=" stroke:none;fill-rule:nonzero;fill:rgb(100%,100%,100%);fill-opacity:1;" d="M 165.984375 99.210938 L 169.871094 102.773438 "/>
<path style=" stroke:none;fill-rule:nonzero;fill:rgb(13.729858%,12.159729%,12.548828%);fill-opacity:1;" d="M 164.898438 100.382812 L 168.789062 103.949219 C 169.441406 104.542969 170.449219 104.5 171.050781 103.851562 C 171.644531 103.203125 171.605469 102.195312 170.953125 101.597656 L 167.0625 98.035156 C 166.410156 97.4375 165.398438 97.484375 164.804688 98.132812 C 164.203125 98.78125 164.25 99.789062 164.898438 100.382812 "/>
<path style=" stroke:none;fill-rule:nonzero;fill:rgb(100%,100%,100%);fill-opacity:1;" d="M 204.882812 103.515625 L 210.113281 102.773438 "/>
<path style=" stroke:none;fill-rule:nonzero;fill:rgb(13.729858%,12.159729%,12.548828%);fill-opacity:1;" d="M 205.113281 105.09375 L 210.339844 104.351562 C 211.214844 104.226562 211.820312 103.421875 211.695312 102.546875 C 211.570312 101.675781 210.765625 101.070312 209.890625 101.191406 L 204.660156 101.933594 C 203.789062 102.058594 203.175781 102.867188 203.300781 103.738281 C 203.425781 104.613281 204.238281 105.21875 205.113281 105.09375 "/>
<path style=" stroke:none;fill-rule:nonzero;fill:rgb(100%,100%,100%);fill-opacity:1;" d="M 200.945312 113.042969 L 200.703125 118.304688 "/>
<path style=" stroke:none;fill-rule:nonzero;fill:rgb(13.729858%,12.159729%,12.548828%);fill-opacity:1;" d="M 199.347656 112.96875 L 199.109375 118.230469 C 199.066406 119.113281 199.75 119.859375 200.632812 119.898438 C 201.515625 119.9375 202.261719 119.257812 202.300781 118.378906 L 202.539062 113.113281 C 202.582031 112.230469 201.898438 111.488281 201.015625 111.445312 C 200.132812 111.40625 199.386719 112.085938 199.347656 112.96875 "/>
<path style=" stroke:none;fill-rule:nonzero;fill:rgb(100%,100%,100%);fill-opacity:1;" d="M 221.898438 105.589844 L 221.660156 110.847656 "/>
<path style=" stroke:none;fill-rule:nonzero;fill:rgb(13.729858%,12.159729%,12.548828%);fill-opacity:1;" d="M 220.300781 105.515625 L 220.0625 110.777344 C 220.023438 111.660156 220.707031 112.402344 221.589844 112.445312 C 222.472656 112.480469 223.21875 111.800781 223.261719 110.917969 L 223.492188 105.660156 C 223.535156 104.777344 222.851562 104.03125 221.96875 103.992188 C 221.085938 103.957031 220.339844 104.636719 220.300781 105.515625 "/>
<path style=" stroke:none;fill-rule:nonzero;fill:rgb(100%,100%,100%);fill-opacity:1;" d="M 214.550781 117.765625 L 219.394531 119.859375 "/>
<path style=" stroke:none;fill-rule:nonzero;fill:rgb(13.729858%,12.159729%,12.548828%);fill-opacity:1;" d="M 213.910156 119.230469 L 218.757812 121.328125 C 219.570312 121.675781 220.511719 121.300781 220.863281 120.496094 C 221.210938 119.6875 220.839844 118.746094 220.027344 118.398438 L 215.1875 116.300781 C 214.375 115.949219 213.433594 116.320312 213.082031 117.128906 C 212.730469 117.9375 213.105469 118.875 213.910156 119.230469 "/>
<path style=" stroke:none;fill-rule:nonzero;fill:rgb(100%,100%,100%);fill-opacity:1;" d="M 234.09375 115.417969 L 239.324219 114.679688 "/>
<path style=" stroke:none;fill-rule:nonzero;fill:rgb(13.729858%,12.159729%,12.548828%);fill-opacity:1;" d="M 234.320312 116.996094 L 239.550781 116.257812 C 240.425781 116.136719 241.03125 115.328125 240.90625 114.453125 C 240.785156 113.582031 239.976562 112.976562 239.101562 113.101562 L 233.871094 113.835938 C 232.996094 113.960938 232.386719 114.765625 232.511719 115.640625 C 232.632812 116.511719 233.445312 117.121094 234.320312 116.996094 "/>
<path style=" stroke:none;fill-rule:nonzero;fill:rgb(100%,100%,100%);fill-opacity:1;" d="M 200.945312 129.078125 L 206.167969 128.34375 "/>
<path style=" stroke:none;fill-rule:nonzero;fill:rgb(13.729858%,12.159729%,12.548828%);fill-opacity:1;" d="M 201.164062 130.65625 L 206.390625 129.921875 C 207.265625 129.796875 207.875 128.992188 207.75 128.121094 C 207.625 127.246094 206.816406 126.640625 205.941406 126.761719 L 200.71875 127.5 C 199.84375 127.625 199.234375 128.429688 199.359375 129.304688 C 199.484375 130.175781 200.289062 130.78125 201.164062 130.65625 "/>
<path style=" stroke:none;fill-rule:nonzero;fill:rgb(100%,100%,100%);fill-opacity:1;" d="M 230.148438 124.949219 L 229.910156 130.210938 "/>
<path style=" stroke:none;fill-rule:nonzero;fill:rgb(13.729858%,12.159729%,12.548828%);fill-opacity:1;" d="M 228.554688 124.875 L 228.316406 130.132812 C 228.273438 131.015625 228.957031 131.761719 229.839844 131.800781 C 230.722656 131.84375 231.46875 131.160156 231.507812 130.28125 L 231.746094 125.019531 C 231.789062 124.140625 231.105469 123.390625 230.222656 123.355469 C 229.339844 123.3125 228.589844 123.992188 228.554688 124.875 "/>
<path style=" stroke:none;fill-rule:nonzero;fill:rgb(100%,100%,100%);fill-opacity:1;" d="M 182.554688 123.449219 L 182.320312 128.714844 "/>
<path style=" stroke:none;fill-rule:nonzero;fill:rgb(13.729858%,12.159729%,12.548828%);fill-opacity:1;" d="M 180.957031 123.378906 L 180.71875 128.644531 C 180.683594 129.523438 181.363281 130.269531 182.246094 130.308594 C 183.128906 130.347656 183.875 129.664062 183.914062 128.785156 L 184.152344 123.519531 C 184.191406 122.640625 183.503906 121.890625 182.621094 121.855469 C 181.742188 121.816406 180.996094 122.5 180.957031 123.378906 "/>
<path style=" stroke:none;fill-rule:nonzero;fill:rgb(100%,100%,100%);fill-opacity:1;" d="M 252.394531 145.347656 C 246.273438 146.605469 240.570312 146.023438 234.425781 146.621094 C 228.148438 147.230469 221.140625 146.734375 214.785156 146.609375 C 209.128906 146.488281 203.140625 147.214844 197.566406 145.914062 C 193.246094 144.910156 190.265625 147.433594 186.210938 147.015625 C 182.136719 146.589844 178.878906 146.722656 174.847656 147.28125 C 169.152344 148.074219 163.707031 147.277344 157.914062 148.179688 C 152.628906 149 148.796875 148.425781 143.890625 146.308594 C 139.703125 144.496094 135.972656 145.921875 131.703125 145.835938 C 127.832031 145.757812 124.011719 145.269531 120.308594 146.871094 C 119.453125 147.234375 118.621094 147.300781 117.863281 147.152344 C 117.695312 147.738281 117.582031 148.339844 117.582031 148.976562 C 117.582031 151.445312 118.902344 153.59375 120.859375 154.804688 C 125.125 153.332031 129.402344 152.398438 134.167969 153.257812 C 141.316406 154.546875 147.671875 151.824219 154.863281 153.71875 C 159.886719 155.042969 163.425781 153.335938 168.304688 153.492188 C 171.789062 153.605469 175.339844 154.996094 178.738281 154.988281 C 184.664062 154.984375 191.410156 152.554688 197.300781 154.027344 C 202.527344 155.332031 206.421875 155.753906 211.699219 154.671875 C 214.363281 154.128906 216.683594 153.808594 219.410156 154.132812 C 221.238281 154.347656 222.800781 155.226562 224.464844 155.847656 L 230.945312 155.847656 C 232.898438 155.246094 234.828125 154.417969 236.785156 154.277344 C 240.929688 153.976562 245.136719 155.242188 249.1875 154.863281 C 252.132812 154.59375 255.113281 152.671875 257.984375 151.863281 C 260.507812 151.148438 263.351562 151.261719 266.238281 151.648438 C 266.578125 150.824219 266.773438 149.921875 266.773438 148.976562 C 266.773438 147.503906 266.304688 146.148438 265.511719 145.035156 C 261.238281 145.484375 256.910156 144.429688 252.394531 145.347656 "/>
<path style=" stroke:none;fill-rule:nonzero;fill:rgb(13.729858%,12.159729%,12.548828%);fill-opacity:1;" d="M 252.394531 145.347656 L 252.074219 143.78125 C 249.160156 144.382812 246.304688 144.550781 243.371094 144.632812 C 240.441406 144.722656 237.4375 144.722656 234.269531 145.035156 C 232.054688 145.246094 229.722656 145.320312 227.34375 145.320312 C 223.1875 145.320312 218.894531 145.089844 214.820312 145.011719 C 214.34375 145 213.871094 144.996094 213.394531 144.996094 C 210.917969 144.996094 208.445312 145.109375 206.019531 145.109375 C 203.21875 145.109375 200.492188 144.957031 197.929688 144.359375 C 197.082031 144.160156 196.261719 144.082031 195.484375 144.082031 C 193.75 144.082031 192.25 144.480469 190.90625 144.820312 C 189.550781 145.175781 188.355469 145.464844 187.140625 145.464844 C 186.890625 145.464844 186.636719 145.453125 186.375 145.421875 L 186.378906 145.429688 C 184.703125 145.253906 183.152344 145.171875 181.628906 145.171875 C 179.324219 145.171875 177.101562 145.355469 174.628906 145.703125 C 171.921875 146.074219 169.214844 146.082031 166.40625 146.09375 C 163.605469 146.105469 160.710938 146.128906 157.664062 146.605469 C 156.203125 146.828125 154.878906 146.941406 153.625 146.941406 C 150.558594 146.9375 147.890625 146.292969 144.53125 144.84375 C 142.640625 144.027344 140.808594 143.785156 139.097656 143.785156 C 136.59375 143.796875 134.332031 144.25 132.089844 144.238281 C 131.96875 144.238281 131.851562 144.238281 131.730469 144.238281 L 131.738281 144.238281 C 130.21875 144.207031 128.652344 144.105469 127.039062 144.105469 C 124.667969 144.105469 122.167969 144.328125 119.667969 145.40625 L 119.679688 145.402344 C 119.289062 145.566406 118.945312 145.628906 118.621094 145.632812 C 118.464844 145.632812 118.3125 145.613281 118.164062 145.585938 C 117.351562 145.433594 116.550781 145.921875 116.324219 146.71875 C 116.128906 147.398438 115.984375 148.152344 115.984375 148.976562 C 115.984375 152.019531 117.621094 154.675781 120.019531 156.160156 C 120.425781 156.414062 120.929688 156.46875 121.386719 156.308594 C 124.4375 155.253906 127.394531 154.523438 130.476562 154.527344 C 131.585938 154.527344 132.714844 154.617188 133.882812 154.828125 C 135.472656 155.117188 137.007812 155.214844 138.503906 155.214844 C 142.242188 155.207031 145.6875 154.613281 149.042969 154.617188 C 150.847656 154.617188 152.628906 154.78125 154.453125 155.261719 C 156.019531 155.671875 157.472656 155.820312 158.828125 155.820312 C 160.449219 155.820312 161.929688 155.621094 163.363281 155.433594 C 164.796875 155.246094 166.183594 155.074219 167.660156 155.074219 C 167.855469 155.074219 168.050781 155.078125 168.25 155.082031 L 168.257812 155.082031 C 169.796875 155.132812 171.46875 155.476562 173.214844 155.84375 C 174.96875 156.207031 176.796875 156.578125 178.710938 156.582031 L 178.734375 156.582031 L 178.722656 155.230469 L 178.632812 156.578125 L 178.734375 156.582031 L 178.722656 155.230469 L 178.632812 156.578125 L 178.738281 156.582031 C 181.179688 156.578125 183.640625 156.207031 186.0625 155.847656 C 188.476562 155.488281 190.855469 155.144531 193.074219 155.148438 C 194.414062 155.144531 195.703125 155.269531 196.910156 155.574219 C 200.148438 156.382812 202.984375 156.882812 205.972656 156.882812 C 207.890625 156.882812 209.863281 156.675781 212.019531 156.234375 C 213.902344 155.847656 215.53125 155.597656 217.21875 155.597656 C 217.867188 155.597656 218.527344 155.632812 219.21875 155.714844 L 219.222656 155.71875 C 219.933594 155.800781 220.644531 156.023438 221.414062 156.320312 C 222.183594 156.621094 222.992188 157 223.902344 157.339844 C 224.082031 157.40625 224.273438 157.441406 224.464844 157.441406 L 230.945312 157.441406 C 231.109375 157.441406 231.261719 157.417969 231.417969 157.367188 C 233.476562 156.71875 235.316406 155.96875 236.898438 155.867188 C 237.304688 155.839844 237.714844 155.828125 238.125 155.828125 C 241.050781 155.816406 244.230469 156.515625 247.578125 156.527344 C 248.15625 156.527344 248.746094 156.507812 249.332031 156.449219 C 251.101562 156.285156 252.71875 155.664062 254.234375 155.039062 C 255.738281 154.402344 257.15625 153.75 258.417969 153.402344 C 259.5625 153.074219 260.828125 152.933594 262.183594 152.933594 C 263.40625 152.933594 264.695312 153.046875 266.019531 153.226562 C 266.738281 153.320312 267.433594 152.925781 267.710938 152.261719 C 268.132812 151.253906 268.375 150.140625 268.371094 148.976562 C 268.375 147.167969 267.796875 145.480469 266.816406 144.109375 C 266.484375 143.640625 265.917969 143.386719 265.347656 143.445312 C 264.59375 143.523438 263.828125 143.554688 263.035156 143.554688 C 261.070312 143.558594 258.980469 143.363281 256.765625 143.363281 C 255.261719 143.363281 253.691406 143.453125 252.074219 143.78125 L 252.394531 145.347656 L 252.71875 146.910156 C 254.050781 146.636719 255.390625 146.554688 256.765625 146.554688 C 258.785156 146.550781 260.867188 146.746094 263.035156 146.746094 C 263.90625 146.746094 264.785156 146.714844 265.679688 146.621094 L 265.511719 145.035156 L 264.210938 145.957031 C 264.816406 146.816406 265.171875 147.847656 265.175781 148.976562 C 265.171875 149.703125 265.027344 150.398438 264.757812 151.03125 L 266.238281 151.648438 L 266.449219 150.066406 C 265.03125 149.875 263.601562 149.746094 262.183594 149.746094 C 260.613281 149.746094 259.054688 149.902344 257.546875 150.332031 C 255.9375 150.789062 254.429688 151.496094 252.996094 152.09375 C 251.5625 152.695312 250.21875 153.171875 249.039062 153.277344 C 248.5625 153.316406 248.074219 153.339844 247.578125 153.339844 C 244.707031 153.351562 241.519531 152.644531 238.125 152.636719 C 237.644531 152.636719 237.160156 152.652344 236.667969 152.6875 C 234.339844 152.863281 232.320312 153.765625 230.476562 154.324219 L 230.945312 155.847656 L 230.945312 154.253906 L 224.464844 154.253906 L 224.464844 155.847656 L 225.027344 154.351562 C 224.269531 154.070312 223.46875 153.699219 222.582031 153.351562 C 221.695312 153.007812 220.710938 152.683594 219.597656 152.550781 L 219.601562 152.550781 C 218.78125 152.449219 217.988281 152.40625 217.21875 152.40625 C 215.210938 152.40625 213.339844 152.707031 211.378906 153.105469 C 209.402344 153.511719 207.660156 153.691406 205.972656 153.691406 C 203.347656 153.691406 200.8125 153.257812 197.6875 152.476562 C 196.160156 152.097656 194.609375 151.960938 193.074219 151.960938 C 190.535156 151.960938 188.015625 152.332031 185.589844 152.691406 C 183.167969 153.050781 180.839844 153.390625 178.734375 153.390625 L 178.738281 154.988281 L 178.835938 153.398438 L 178.726562 153.390625 L 178.703125 153.390625 L 178.710938 154.332031 L 178.710938 153.390625 L 178.703125 153.390625 L 178.710938 154.332031 L 178.710938 153.390625 C 177.238281 153.398438 175.601562 153.082031 173.867188 152.71875 C 172.128906 152.363281 170.289062 151.960938 168.355469 151.898438 L 168.363281 151.898438 C 168.128906 151.886719 167.894531 151.882812 167.660156 151.882812 C 165.933594 151.882812 164.386719 152.082031 162.953125 152.269531 C 161.511719 152.457031 160.179688 152.628906 158.828125 152.628906 C 157.695312 152.628906 156.546875 152.511719 155.269531 152.179688 C 153.117188 151.609375 151.039062 151.425781 149.042969 151.425781 C 145.320312 151.4375 141.886719 152.03125 138.503906 152.027344 C 137.15625 152.027344 135.808594 151.933594 134.453125 151.6875 C 133.09375 151.445312 131.769531 151.335938 130.476562 151.335938 C 126.882812 151.335938 123.554688 152.183594 120.335938 153.296875 L 120.859375 154.804688 L 121.707031 153.445312 C 120.191406 152.507812 119.183594 150.867188 119.183594 148.976562 C 119.183594 148.527344 119.261719 148.074219 119.398438 147.589844 L 117.863281 147.152344 L 117.558594 148.71875 C 117.898438 148.785156 118.253906 148.824219 118.621094 148.824219 C 119.378906 148.824219 120.167969 148.664062 120.9375 148.335938 L 120.945312 148.332031 C 122.859375 147.503906 124.859375 147.296875 127.039062 147.296875 C 128.515625 147.296875 130.058594 147.394531 131.671875 147.429688 L 131.679688 147.429688 C 131.816406 147.429688 131.957031 147.429688 132.089844 147.429688 C 134.730469 147.421875 137.015625 146.96875 139.097656 146.976562 C 140.523438 146.980469 141.84375 147.164062 143.257812 147.769531 C 146.855469 149.332031 150.074219 150.140625 153.625 150.132812 C 155.070312 150.132812 156.558594 150.003906 158.15625 149.753906 C 160.90625 149.324219 163.628906 149.296875 166.425781 149.285156 C 169.214844 149.269531 172.078125 149.273438 175.070312 148.859375 C 177.441406 148.535156 179.503906 148.359375 181.628906 148.359375 C 183.035156 148.359375 184.472656 148.4375 186.050781 148.597656 L 186.054688 148.601562 C 186.421875 148.640625 186.785156 148.65625 187.140625 148.65625 C 188.867188 148.652344 190.355469 148.257812 191.699219 147.914062 C 193.050781 147.5625 194.253906 147.269531 195.484375 147.273438 C 196.035156 147.273438 196.597656 147.328125 197.207031 147.46875 C 200.136719 148.148438 203.105469 148.292969 206.019531 148.300781 C 208.535156 148.300781 211.011719 148.1875 213.394531 148.1875 C 213.851562 148.1875 214.304688 148.191406 214.753906 148.199219 C 218.757812 148.277344 223.074219 148.511719 227.34375 148.511719 C 229.789062 148.511719 232.222656 148.4375 234.582031 148.207031 C 237.554688 147.917969 240.472656 147.914062 243.464844 147.824219 C 246.453125 147.738281 249.515625 147.566406 252.722656 146.910156 L 252.394531 145.347656 "/>
<path style=" stroke:none;fill-rule:nonzero;fill:rgb(100%,100%,100%);fill-opacity:1;" d="M 266.863281 144.957031 C 266.863281 145.609375 266.332031 146.132812 265.679688 146.132812 L 118.683594 146.132812 C 118.027344 146.132812 117.496094 145.609375 117.496094 144.957031 C 117.496094 144.308594 118.027344 143.78125 118.683594 143.78125 L 265.679688 143.78125 C 266.332031 143.78125 266.863281 144.308594 266.863281 144.957031 "/>
<path style=" stroke:none;fill-rule:nonzero;fill:rgb(13.729858%,12.159729%,12.548828%);fill-opacity:1;" d="M 266.863281 144.957031 L 265.261719 144.957031 L 265.679688 144.957031 L 265.679688 144.539062 C 265.445312 144.539062 265.261719 144.726562 265.261719 144.957031 L 265.679688 144.957031 L 265.679688 144.539062 L 118.683594 144.539062 L 118.683594 144.957031 L 119.09375 144.957031 C 119.09375 144.726562 118.902344 144.539062 118.683594 144.539062 L 118.683594 144.957031 L 119.09375 144.957031 L 118.683594 144.957031 L 118.683594 145.375 C 118.910156 145.375 119.09375 145.195312 119.09375 144.957031 L 118.683594 144.957031 L 118.683594 145.375 L 265.679688 145.378906 L 265.679688 144.957031 L 265.261719 144.957031 C 265.261719 145.195312 265.441406 145.371094 265.679688 145.375 L 265.679688 144.957031 L 265.261719 144.957031 L 268.457031 144.957031 C 268.457031 143.425781 267.21875 142.191406 265.679688 142.1875 L 118.683594 142.183594 C 117.140625 142.1875 115.902344 143.425781 115.898438 144.957031 C 115.902344 146.496094 117.152344 147.726562 118.683594 147.730469 L 265.679688 147.730469 C 267.214844 147.730469 268.457031 146.492188 268.457031 144.957031 L 266.863281 144.957031 "/>
<path style=" stroke:none;fill-rule:nonzero;fill:rgb(100%,100%,100%);fill-opacity:1;" d="M 266.902344 163.921875 C 266.902344 164.765625 266.226562 165.449219 265.375 165.449219 L 118.988281 165.449219 C 118.140625 165.449219 117.453125 164.765625 117.453125 163.921875 L 117.453125 158.421875 C 117.453125 157.582031 118.140625 156.894531 118.988281 156.894531 L 265.375 156.894531 C 266.226562 156.894531 266.902344 157.582031 266.902344 158.421875 L 266.902344 163.921875 "/>
<path style=" stroke:none;fill-rule:nonzero;fill:rgb(13.729858%,12.159729%,12.548828%);fill-opacity:1;" d="M 266.902344 163.921875 L 265.304688 163.921875 L 265.367188 163.921875 L 265.320312 163.875 L 265.304688 163.921875 L 265.367188 163.921875 L 265.320312 163.875 L 265.375 163.925781 L 265.375 163.855469 L 265.320312 163.875 L 265.375 163.925781 L 265.375 163.855469 L 118.988281 163.851562 L 118.988281 163.921875 L 119.054688 163.921875 L 118.988281 163.855469 L 118.988281 163.921875 L 119.054688 163.921875 L 119.054688 158.421875 L 118.988281 158.421875 L 118.988281 158.488281 L 119.054688 158.421875 L 118.988281 158.421875 L 118.988281 158.488281 L 265.375 158.488281 L 265.375 158.414062 L 265.320312 158.464844 L 265.375 158.488281 L 265.375 158.414062 L 265.320312 158.464844 L 265.367188 158.421875 L 265.304688 158.421875 L 265.320312 158.464844 L 265.367188 158.421875 L 265.304688 158.421875 L 265.304688 163.921875 L 268.503906 163.921875 L 268.503906 158.421875 C 268.503906 157.570312 268.152344 156.777344 267.589844 156.21875 C 267.035156 155.652344 266.234375 155.296875 265.375 155.300781 L 118.988281 155.300781 C 117.253906 155.300781 115.855469 156.695312 115.855469 158.421875 L 115.855469 163.921875 C 115.855469 165.644531 117.253906 167.039062 118.988281 167.039062 L 265.375 167.042969 C 266.234375 167.042969 267.035156 166.6875 267.589844 166.125 C 268.152344 165.5625 268.503906 164.773438 268.503906 163.921875 L 266.902344 163.921875 "/>
<path style=" stroke:none;fill-rule:nonzero;fill:rgb(100%,100%,100%);fill-opacity:1;" d="M 121.621094 156.894531 C 121.621094 156.894531 173.96875 155.3125 194.242188 165.449219 C 194.242188 165.449219 235.375 156.550781 259.972656 156.894531 C 284.566406 157.238281 137.367188 152.3125 121.621094 156.894531 "/>
<path style=" stroke:none;fill-rule:nonzero;fill:rgb(13.729858%,12.159729%,12.548828%);fill-opacity:1;" d="M 121.621094 156.894531 L 121.671875 158.484375 C 121.671875 158.484375 121.851562 158.480469 122.199219 158.472656 C 123.242188 158.449219 125.796875 158.398438 129.367188 158.398438 C 137 158.398438 149.316406 158.628906 161.605469 159.816406 C 167.75 160.410156 173.886719 161.246094 179.417969 162.398438 C 184.9375 163.550781 189.859375 165.039062 193.523438 166.875 C 193.847656 167.035156 194.222656 167.082031 194.578125 167.007812 C 194.578125 167.007812 194.726562 166.972656 195.023438 166.910156 C 197.226562 166.445312 207.375 164.332031 219.84375 162.339844 C 232.3125 160.347656 247.125 158.476562 258.550781 158.476562 C 259.019531 158.476562 259.488281 158.480469 259.945312 158.488281 C 260.800781 158.5 261.445312 158.507812 261.910156 158.507812 C 262.199219 158.507812 262.414062 158.503906 262.582031 158.5 L 262.832031 158.484375 C 262.882812 158.476562 262.929688 158.476562 263.054688 158.449219 C 263.125 158.433594 263.203125 158.421875 263.394531 158.339844 C 263.492188 158.289062 263.628906 158.234375 263.832031 158.050781 C 263.925781 157.953125 264.042969 157.824219 264.152344 157.625 C 264.253906 157.429688 264.335938 157.160156 264.335938 156.886719 C 264.335938 156.636719 264.273438 156.402344 264.1875 156.222656 C 264.019531 155.859375 263.820312 155.707031 263.695312 155.605469 C 263.433594 155.425781 263.328125 155.402344 263.238281 155.371094 C 263.082031 155.320312 263.03125 155.316406 262.972656 155.304688 C 262.792969 155.273438 262.703125 155.269531 262.527344 155.253906 C 261.90625 155.207031 260.625 155.144531 258.710938 155.070312 C 245.363281 154.539062 202.085938 153.335938 167.394531 153.335938 C 156.328125 153.335938 146.132812 153.457031 138.050781 153.765625 C 134.011719 153.921875 130.496094 154.121094 127.652344 154.378906 C 124.800781 154.640625 122.65625 154.9375 121.175781 155.363281 C 120.402344 155.585938 119.917969 156.351562 120.042969 157.144531 C 120.167969 157.9375 120.863281 158.511719 121.671875 158.484375 L 121.621094 156.894531 L 122.074219 158.421875 C 123.121094 158.117188 125.191406 157.800781 127.945312 157.554688 C 136.226562 156.804688 150.832031 156.523438 167.394531 156.523438 C 188.121094 156.523438 211.941406 156.957031 230.585938 157.417969 C 239.902344 157.648438 247.929688 157.882812 253.617188 158.078125 C 256.464844 158.175781 258.726562 158.261719 260.265625 158.328125 C 261.042969 158.367188 261.632812 158.394531 262.019531 158.417969 C 262.210938 158.433594 262.355469 158.441406 262.421875 158.449219 L 262.457031 158.449219 L 262.558594 157.617188 L 262.386719 158.4375 L 262.457031 158.449219 L 262.558594 157.617188 L 262.386719 158.4375 L 262.691406 156.972656 L 262.148438 158.371094 C 262.292969 158.421875 262.34375 158.429688 262.386719 158.4375 L 262.691406 156.972656 L 262.148438 158.371094 L 262.722656 156.894531 L 261.773438 158.15625 C 261.96875 158.300781 262.070312 158.332031 262.148438 158.371094 L 262.722656 156.894531 L 261.773438 158.15625 L 262.730469 156.886719 L 261.410156 157.78125 C 261.550781 157.980469 261.679688 158.082031 261.773438 158.15625 L 262.730469 156.886719 L 261.410156 157.78125 L 262.730469 156.886719 L 261.136719 156.886719 C 261.132812 157.261719 261.273438 157.589844 261.410156 157.78125 L 262.730469 156.886719 L 261.136719 156.886719 L 262.730469 156.886719 L 261.320312 156.144531 C 261.214844 156.339844 261.132812 156.609375 261.136719 156.886719 L 262.730469 156.886719 L 261.320312 156.144531 L 262.730469 156.882812 L 261.886719 155.53125 C 261.753906 155.625 261.53125 155.757812 261.320312 156.144531 L 262.730469 156.882812 L 261.886719 155.53125 L 262.71875 156.867188 L 262.328125 155.34375 C 262.25 155.371094 262.152344 155.378906 261.886719 155.53125 L 262.71875 156.867188 L 262.328125 155.34375 L 262.671875 156.691406 L 262.519531 155.308594 C 262.496094 155.3125 262.460938 155.3125 262.328125 155.34375 L 262.671875 156.691406 L 262.519531 155.308594 L 262.585938 155.910156 L 262.546875 155.308594 L 262.519531 155.308594 L 262.585938 155.910156 L 262.546875 155.308594 C 262.523438 155.308594 262.273438 155.316406 261.910156 155.316406 C 261.46875 155.316406 260.832031 155.3125 259.992188 155.300781 C 259.515625 155.292969 259.035156 155.285156 258.550781 155.285156 C 246.011719 155.292969 229.894531 157.441406 216.863281 159.589844 C 203.835938 161.738281 193.917969 163.882812 193.902344 163.886719 L 194.242188 165.449219 L 194.957031 164.019531 C 190.898438 161.992188 185.761719 160.46875 180.070312 159.277344 C 163.019531 155.714844 140.925781 155.210938 129.367188 155.207031 C 124.5625 155.207031 121.589844 155.300781 121.578125 155.300781 L 121.621094 156.894531 L 122.074219 158.421875 L 121.621094 156.894531 "/>
</g>
</svg>
